<?xml version="1.0" encoding="UTF-8"?>
<svg width="1200pt" height="1200pt" version="1.1" viewBox="0 0 1200 1200" xmlns="http://www.w3.org/2000/svg">
 <path d="m1146.4 387.24c-0.35938-5.7617-2.8789-11.16-4.9219-16.441-3-7.8008-5.2812-15.719-8.3984-23.398-3.4805-8.3984-6.7188-16.922-10.199-25.199-1.9219-4.4414-4.0781-8.8789-6.4805-13.078-2.1602-3.8398-4.8008-7.1992-7.8008-10.441-3-3.3594-6.1211-6.6016-9-10.078-2.8789-3.3594-5.5195-6.9609-8.5195-10.199-3.2383-3.7188-6.6016-7.1992-10.559-10.199-4.0781-3-8.3984-5.7617-12.84-8.2812-8.3984-4.5586-17.281-7.8008-26.641-9-4.5586-0.60156-9.1211-0.96094-13.801-1.3203-4.4414-0.48047-8.8789-1.0781-13.441-1.4414-1.9219-0.12109-3.8398-0.23828-5.6406-0.23828-2.8789-0.35938-5.8789-0.23828-9 0.23828-4.9219 0.60156-9.8398 2.1602-14.52 3.7188-3.9609 1.4414-7.8008 3-11.879 4.3203-3.8398 1.1992-7.6797 2.3984-11.398 4.0781-4.5586 2.0391-8.8789 4.6797-13.078 7.4414-3.7188 2.3984-7.4414 5.1602-10.801 8.1602-3.8398 3.4805-7.6797 6.9609-11.16 10.922-2.7617 3.1211-5.3984 6.3594-7.9219 9.7188-5.7617 7.8008-10.922 16.199-15.84 24.48-2.1602 3.7188-3.9609 7.6797-5.6406 11.641-1.9219 4.6797-3.7188 9.7188-4.9219 14.641-1.0781 4.4414-1.9219 8.8789-2.7617 13.441-0.71875 4.3203-0.83984 8.8789-1.1992 13.32-0.35938 4.5586-0.60156 9.1211-1.0781 13.68-0.48047 4.4414-1.1992 8.8789-1.8008 13.32-0.60156 4.5586-1.1992 9.2383-1.5586 13.801-0.48047 5.1602-0.71875 10.32-0.35938 15.48 0.23828 3.2383 0.96094 6.3594 1.4414 9.6016 0.48047 2.8789 0.83984 5.7617 1.1992 8.6406 0.96094 6.6016 3.1211 12.961 4.8008 19.441 0.71875 3.8398 0.96094 7.5586 0.96094 11.52-0.48047 12.359-2.1602 24.719-5.6406 36.602-0.71875 2.0391-1.4414 3.8398-2.5195 5.7617-2.3984 3.4805-5.1602 6.6016-8.1602 9.4805-1.8008 1.5586-3.7188 3-5.8789 4.1992-4.5586 2.2812-9.2383 4.3203-13.922 6.3594-4.8008 2.0391-9.7188 4.0781-14.762 5.3984-2.5195 0.48047-5.0391 0.96094-7.6797 0.96094-2.8789-0.23828-5.6406-0.83984-8.5195-1.6797 0-0.96094 0.12109-2.0391 0.12109-3 0-3.3594 0-6.7188-0.12109-10.078-0.12109-3.4805-0.48047-6.8398-1.1992-10.199-0.71875-3.6016-1.6797-7.0781-2.6406-10.68-1.5586-6.6016-2.0391-13.32-3.9609-19.801-0.83984-2.7617-1.9219-5.3984-3-8.0391-0.96094-2.3984-1.8008-4.8008-2.5195-7.3203-0.96094-4.4414-1.6797-8.8789-3.2383-13.199-1.5586-4.1992-3.8398-8.0391-5.2812-12.238-1.5586-4.4414-2.7617-9.1211-4.8008-13.441-2.2812-4.5586-5.2812-8.6406-7.9219-13.078-1.6797-3.3594-3.1211-6.9609-5.1602-10.32-1.8008-3.1211-3.9609-5.7617-6.3594-8.2812l0.12109 0.12109c-0.12109-0.12109-0.23828-0.35938-0.48047-0.48047l-0.12109-0.12109c-0.60156-0.60156-1.0781-1.1992-1.6797-1.8008-3-3.2383-5.1602-6.8398-7.5586-10.559-1.8008-2.7617-3.9609-5.1602-6.3594-7.4414-1.9219-1.8008-4.0781-3.1211-6.1211-4.6797-2.2812-1.5586-4.4414-3.2383-6.6016-5.0391-2.1602-1.9219-4.3203-3.8398-6.6016-5.5195-2.8789-2.0391-6-3.7188-9.1211-5.2812-2.1602-1.0781-4.3203-2.1602-6.4805-3.3594-2.8789-2.0391-5.3984-4.4414-8.1602-6.4805-4.0781-3-8.6406-5.5195-13.199-8.0391-2.0391-1.1992-4.0781-2.3984-6.2383-3.3594-2.2812-1.0781-4.8008-1.8008-7.3203-2.5195-4.0781-1.0781-8.1602-1.8008-12.121-3-1.9219-0.60156-3.8398-1.3203-5.6406-2.1602-2.8789-1.1992-6-2.0391-8.8789-2.8789-4.6797-1.3203-9.6016-1.9219-14.281-2.7617-4.5586-0.83984-9.2383-1.6797-13.801-2.3984-4.6797-0.71875-9.2383-0.83984-13.922-0.96094-4.9219-0.12109-9.8398-0.35938-14.762-0.48047h-3.7188c-3.1211-0.12109-6.1211 0-9.1211 0.35938-8.7617 1.0781-17.398 2.7617-26.16 3.9609-3.7188 0.48047-7.4414 1.0781-11.16 1.8008-4.6797 0.96094-9.2383 2.3984-13.801 3.8398-8.5195 2.7617-16.801 6.1211-25.199 9.3594-8.1602 3.1211-16.32 6.7188-24 10.922-3.9609 2.1602-7.8008 4.1992-11.879 6.1211-4.4414 2.0391-8.6406 4.4414-12.719 7.1992-3.8398 2.6406-7.6797 5.5195-11.398 8.5195-3.7188 3.1211-7.1992 6.6016-10.801 9.9609-3.3594 3.2383-6.6016 6.4805-9.6016 9.9609-4.0781 4.6797-8.0391 9.8398-10.32 15.719-1.1992 3.1211-2.3984 6.3594-3.6016 9.4805-1.4414 3.6016-3 7.1992-3.9609 11.039-1.8008 6.6016-1.4414 13.441-1.4414 20.16v1.4414c-0.12109 2.0391 0.12109 3.7188 0.96094 5.2812-3.1211-0.35938-6.1211-0.83984-9.1211-1.5586-3.6016-1.1992-6.9609-2.8789-10.441-4.3203-4.4414-1.8008-9.2383-3.1211-13.559-5.3984-3.2383-2.1602-6.2383-4.6797-9.8398-6.3594-3.1211-1.4414-6.3594-2.3984-9.3594-4.0781-0.83984-0.60156-1.6797-1.3203-2.3984-2.0391-1.6797-2.0391-3.2383-4.1992-5.0391-6.1211-2.0391-2.2812-4.1992-4.3203-6.3594-6.4805-1.0781-1.3203-2.0391-2.6406-2.8789-4.0781-2.2812-5.1602-3.2383-10.801-5.2812-15.961-0.83984-2.2812-1.9219-4.4414-3-6.4805-0.96094-1.9219-1.8008-3.7188-2.3984-5.7617-1.1992-7.8008-0.23828-15.719-1.6797-23.52-0.83984-4.3203-1.4414-8.6406-1.9219-12.961-0.48047-4.5586-0.48047-9.2383-0.96094-13.801-0.35938-4.0781-1.3203-8.0391-2.0391-12-0.71875-4.1992-1.1992-8.3984-1.1992-12.602-0.12109-4.1992 0-8.5195-0.48047-12.719-0.48047-4.4414-1.4414-8.7617-2.5195-13.078-0.96094-3.9609-1.6797-7.9219-2.7617-11.762-1.0781-3.4805-3-6.6016-4.9219-9.7188-1.5586-3.2383-2.8789-6.6016-4.1992-9.8398-1.0781-2.5195-2.3984-5.0391-4.1992-7.1992-2.6406-3.2383-6.1211-5.3984-9.9609-6.9609-4.6797-1.9219-9.4805-3.4805-14.281-4.8008-4.5586-1.3203-9.3594-1.3203-14.16-1.5586-3.4805-0.12109-6.8398-0.12109-10.32-0.12109-4.6797-0.23828-10.078-0.12109-15.48 0.12109-4.6797 0.12109-9.1211 1.1992-13.559 2.3984-4.1992 1.1992-8.3984 2.3984-12.48 3.9609-3.8398 1.5586-7.5586 3.3594-11.281 5.1602-3.9609 1.9219-7.9219 3.7188-11.762 5.7617-8.8789 4.6797-17.879 9.6016-26.52 14.762-7.9219 4.8008-15.84 9.4805-23.398 14.641-7.6797 5.1602-14.879 10.922-22.078 16.801-7.3203 6.1211-14.762 12.48-21.238 19.68-6.2383 6.8398-12 14.039-17.398 21.602-5.3984 7.5586-9.8398 15.84-14.281 24.121-4.0781 7.5586-7.1992 15.719-10.199 23.762-2.5195 6.8398-4.6797 13.801-6.4805 20.879-1.9219 7.1992-2.8789 14.641-4.0781 21.961-1.0781 7.0781-2.1602 14.16-2.6406 21.359-0.60156 8.0391-0.35938 16.199-0.12109 24.238 0 1.8008 0.83984 3.2383 2.0391 4.5586 0 1.6797-0.12109 3.4805 0.12109 5.1602 0.23828 1.6797 0.60156 3.3594 1.0781 4.9219 1.0781 3.4805 3 6.1211 5.6406 8.5195 2.7617 2.5195 6.6016 3.7188 10.078 4.6797 1.3203 0.35938 2.6406 0.71875 3.9609 1.0781 2.5195 0.60156 5.0391 1.0781 7.6797 1.1992 4.0781 0.23828 7.8008-0.48047 11.641-1.6797 3.3594-1.0781 6.6016-3.1211 9.6016-5.0391 5.6406-3.7188 10.441-8.5195 15.121-13.32 0.60156 0.83984 1.1992 1.8008 2.1602 2.3984 1.8008 1.4414 3.7188 2.6406 5.8789 3.3594 2.6406 0.83984 4.9219 1.1992 7.6797 1.1992 7.4414-0.12109 14.762-3 21.238-6.4805 3.2383-1.6797 6.4805-3.4805 9.6016-5.2812 5.0391-2.8789 9.9609-5.8789 14.879-8.7617 0.23828 2.3984 0.60156 4.8008 1.1992 7.1992 1.3203 4.8008 4.3203 8.6406 8.1602 11.762 2.2812 1.8008 5.2812 2.8789 8.0391 3.6016 3.1211 0.71875 6.1211 1.0781 9.2383 0.83984 2.6406-0.23828 5.2812-1.0781 7.9219-1.8008 1.6797-0.48047 3.3594-1.0781 5.0391-1.8008 2.0391-0.83984 4.0781-1.8008 6.1211-2.7617 2.0391-0.83984 3.9609-2.0391 5.8789-3.1211-0.23828 0.60156-0.35938 1.3203-0.60156 1.9219-0.71875 2.2812-0.60156 4.9219-0.12109 7.3203 0.48047 2.7617 1.6797 5.0391 3.1211 7.4414 1.1992 1.9219 3.1211 3.7188 4.6797 5.3984 0.71875 0.71875 1.4414 1.5586 2.1602 2.2812 1.8008 1.9219 3.6016 3.6016 5.8789 4.9219 6.2383 3.8398 13.922 3.3594 20.879 2.5195 4.4414-0.48047 8.8789-1.4414 13.199-2.5195v0.60156c0 3.2383 0.48047 6.3594 1.9219 9.2383 3 6.6016 10.199 9 16.922 10.078 4.1992 0.71875 8.6406 0.48047 12.719-0.12109 2.7617-0.48047 5.3984-1.0781 8.2812-1.4414 0.83984 1.3203 1.6797 2.7617 2.6406 4.0781 2.1602 2.8789 5.6406 5.2812 9.3594 5.7617 7.3203 1.0781 14.281-1.1992 20.641-4.6797 4.4414-2.3984 8.7617-5.0391 13.078-7.4414 0.60156-0.23828 1.1992-0.48047 1.9219-0.71875 1.4414-0.23828 2.8789-0.35938 4.3203-0.48047 1.8008-0.12109 3.4805-0.60156 5.2812-0.96094 2.2812-0.48047 4.5586-1.1992 6.7188-2.0391s4.0781-2.0391 6-3.1211c5.1602-2.8789 9.2383-7.1992 13.441-11.398 0.12109-0.12109 0.23828-0.23828 0.35938-0.35938 1.4414 0.23828 2.8789 0.48047 4.3203 0.83984-0.83984 1.5586-1.3203 3.3594-1.0781 4.9219 0.35938 1.9219 0.60156 3.7188 0.96094 5.6406h-0.12109c-1.5586 1.8008-2.2812 4.3203-2.0391 6.7188 0.23828 2.2812 1.4414 4.4414 3.2383 6 0.12109 0.12109 0.35938 0.12109 0.48047 0.23828 0.12109 1.8008 0.35938 3.6016 0.48047 5.5195 0.12109 3.6016 0.48047 7.1992 1.0781 10.801 0.71875 3.4805 1.6797 6.9609 2.0391 10.559 0.48047 3.6016 0.71875 7.1992 1.4414 10.801 0.83984 3.8398 2.2812 7.3203 3.6016 11.039 1.1992 3.2383 2.0391 6.4805 3.3594 9.7188 1.4414 3.4805 3.3594 6.7188 5.2812 10.078 1.6797 3.3594 2.8789 6.7188 4.1992 10.199 1.9219 5.0391 4.9219 9.3594 8.1602 13.559 2.8789 3.7188 5.1602 7.6797 7.6797 11.641 2.0391 3.3594 4.5586 6.1211 7.1992 9 1.8008 1.9219 3.4805 3.9609 4.9219 6.1211 1.5586 2.2812 2.8789 4.6797 4.1992 6.9609 3 5.1602 6.6016 9.9609 9.6016 15.121 2.3984 4.3203 4.8008 8.6406 7.1992 12.961l0.12109 0.12109c0-0.12109-0.12109-0.12109-0.12109-0.23828 0.12109 0.23828 0.23828 0.35938 0.35938 0.60156 0.12109 0.23828 0.23828 0.48047 0.35938 0.71875-0.12109-0.12109-0.12109-0.23828-0.23828-0.35938 3.1211 5.8789 6 12.121 7.8008 18.602 0.48047 2.7617 0.35938 5.5195 0.60156 8.3984 0.12109 3 0.60156 5.8789 0.60156 8.8789-0.48047 7.4414-1.8008 14.762-3.8398 21.961-0.12109 0.48047-0.35938 0.83984-0.48047 1.3203-1.1992-0.60156-2.2812-0.83984-3.4805-0.83984-3.3594 0.23828-6.7188 2.2812-8.1602 5.3984-0.12109 0.23828-0.12109 0.35938-0.12109 0.60156-2.3984-0.35937-4.8008-0.60156-7.1992-0.60156-0.83984-0.60156-1.8008-0.60156-2.7617-0.48047-1.5586 0.12109-3.4805 0.71875-4.9219 1.0781-0.71875 0.23828-1.5586 0.48047-2.1602 0.83984-2.5195 1.1992-4.9219 2.5195-7.1992 4.0781-3.8398 2.7617-6.9609 6.7188-7.9219 11.52-1.1992 6.2383 0.48047 12.121 3.8398 17.398 2.1602 3.2383 4.9219 6 7.6797 8.8789 1.8008 2.1602 3.4805 4.4414 4.8008 6.8398 0.60156 1.0781 1.0781 2.1602 1.4414 3.3594-2.0391 1.3203-4.1992 2.3984-6 3.9609-3.7188 3-6.8398 6.8398-8.7617 11.16-1.9219 4.0781-1.9219 8.5195-0.71875 12.84 0.60156 2.1602 1.6797 4.1992 2.8789 6.2383 0.96094 1.5586 2.1602 3 3.3594 4.4414 0.96094 1.0781 1.8008 2.2812 2.5195 3.4805 0 0.12109 0 0.12109 0.12109 0.23828-0.35938 0.83984-0.71875 1.6797-1.1992 2.3984-1.0781 1.6797-2.2812 3.1211-3.6016 4.6797-1.3203 1.5586-3 3-4.1992 4.6797-2.6406 3.6016-4.8008 7.5586-5.2812 12.121-0.35938 3.7188 0.71875 7.1992 1.6797 10.68 0.35938 1.6797 0.60156 3.3594 0.83984 4.9219 0.60156 3.8398 1.4414 7.5586 2.8789 11.281 1.0781 2.7617 3.4805 4.5586 6.2383 5.2812 1.1992 2.2812 2.3984 4.5586 3.7188 6.8398 1.6797 2.5195 3.6016 4.9219 5.5195 7.1992 1.5586 1.8008 3.2383 3.4805 5.0391 4.9219 2.2812 1.6797 4.8008 2.8789 7.4414 3.9609 2.7617 1.0781 5.3984 2.1602 7.9219 3.6016 1.8008 1.1992 3.6016 2.3984 5.5195 3.4805 2.3984 1.4414 5.2812 2.1602 8.0391 2.8789 2.1602 0.60156 4.4414 0.71875 6.7188 0.96094 2.1602 0.12109 4.1992 0.48047 6.2383 0.96094 3.7188 1.3203 7.1992 3 11.039 3.8398 3.9609 0.83984 7.9219 1.0781 11.879 1.9219 2.7617 0.96094 5.3984 2.0391 8.2812 2.8789 3.3594 0.96094 7.1992 1.0781 10.68 0.83984 4.6797-0.23828 9.2383-1.5586 13.801-1.8008 3.4805 0.23828 6.8398 0.60156 10.32 0.60156 4.6797 0.12109 9.2383-0.48047 13.68-2.1602 1.1992-0.23828 2.3984-0.71875 3.6016-1.4414 4.6797-2.8789 9.4805-5.6406 14.16-8.5195 1.8008-1.0781 3.4805-2.1602 4.9219-3.7188 0.83984-0.96094 1.5586-2.0391 2.3984-3 0.83984-0.96094 1.6797-1.8008 2.6406-2.7617 1.5586-1.3203 3-2.6406 4.8008-3.8398 2.0391-1.3203 4.1992-2.3984 6.2383-3.7188 4.4414-2.8789 8.1602-6.7188 11.879-10.32 1.6797-1.5586 3.3594-3.1211 4.9219-4.8008 2.8789-2.8789 5.2812-6.1211 7.4414-9.6016 1.5586-2.6406 1.6797-6 1.6797-9 0-1.3203-0.48047-3.3594-0.96094-4.5586-0.71875-1.8008-1.5586-3.6016-2.6406-5.1602-1.0781-1.5586-2.6406-2.8789-4.3203-3.8398 0.48047-0.83984 0.96094-1.8008 1.3203-2.6406 2.0391-4.3203 3.9609-8.6406 6-12.961 1.0781-2.3984 2.2812-4.8008 3.2383-7.3203 0.96094-2.3984 1.5586-4.9219 2.2812-7.4414 0.71875-2.5195 0.48047-5.6406-0.35937-8.0391-0.83984-2.2812-2.7617-3.9609-4.6797-5.3984-2.0391-1.4414-4.0781-2.8789-6-4.5586 0.48047-0.35938 0.83984-0.71875 1.3203-1.0781 0.96094-0.83984 2.0391-1.8008 2.8789-2.6406 1.0781-1.1992 1.9219-2.6406 2.7617-4.0781 1.4414-2.5195 1.6797-5.8789 1.3203-8.6406-0.35938-3.8398-1.5586-7.4414-3.4805-10.922-1.3203-2.3984-2.8789-4.8008-4.3203-7.1992-0.71875-1.1992-1.8008-2.1602-3-2.6406 0.12109-0.12109 0.12109-0.23828 0.23828-0.35938 3.9609-7.0781 8.2812-13.801 12.121-20.879 3.3594-6.2383 6.7188-12.48 10.441-18.602 1.9219-2.7617 3.9609-5.2812 6.2383-7.8008 2.1602-2.3984 4.3203-4.8008 6.6016-6.9609 11.52-10.441 24.48-19.199 36.602-28.922 3.3594-2.7617 6.7188-5.5195 10.32-7.9219 3.4805-2.2812 6.9609-4.6797 10.32-7.3203 3.6016-2.7617 7.0781-5.3984 10.559-8.2812 3.2383-2.6406 6.7188-4.8008 9.8398-7.4414 3.4805-2.8789 6.4805-6 9.4805-9.3594 2.7617-3.2383 5.3984-6.6016 8.1602-9.8398 2.8789-3.1211 5.8789-6 8.7617-9 2.7617-2.8789 5.0391-5.8789 7.1992-9.1211 2.3984-3.6016 4.9219-7.1992 7.3203-10.801 2.7617-4.0781 5.5195-8.1602 7.6797-12.602 1.9219-3.8398 3.6016-7.9219 5.2812-11.879 1.5586-3.8398 3.1211-7.5586 4.5586-11.398 1.3203-3.3594 2.2812-6.8398 3.2383-10.32 0.96094-3.4805 2.0391-6.8398 2.7617-10.32 0.83984-3.9609 1.5586-7.8008 2.1602-11.762 1.6797 0.48047 3.3594 0.83984 5.0391 1.0781 4.1992 0.60156 8.7617 0.35938 12.961-0.48047 8.5195-1.8008 16.559-4.9219 24.359-8.5195 3.8398-1.8008 7.6797-3.3594 11.281-5.3984 2.1602-1.0781 4.1992-2.2812 6.1211-3.7188 2.0391-1.4414 3.7188-3.2383 5.5195-4.8008 5.8789-5.5195 10.801-12.238 13.441-19.801 3.7188-11.039 5.3984-22.68 6.3594-34.32 0.48047-6 0.83984-12 0.23828-17.879-0.48047-6-2.5195-11.879-4.1992-17.641-0.96094-4.4414-1.6797-9-2.2812-13.559-0.35938-2.6406-0.96094-5.2812-1.3203-7.9219-0.35937-2.6406-0.48047-5.1602-0.48047-7.8008 0.71875-12.719 2.8789-25.199 4.1992-37.801 0.71875-6.4805 0.83984-13.078 1.4414-19.68 0.60156-6.1211 1.9219-12.238 3.6016-18.238 1.6797-5.0391 3.4805-10.078 5.8789-14.762 2.5195-4.9219 5.5195-9.4805 8.3984-14.16 6.3594-9.7188 13.078-18.961 21.48-27.121 5.8789-5.1602 12.359-9.8398 19.199-13.801 4.9219-2.3984 9.9609-3.9609 15.121-5.6406 5.7617-1.9219 11.398-4.3203 17.16-6 3.9609-0.83984 8.0391-1.1992 12.121-1.1992 6.4805 0.35938 12.961 1.3203 19.441 1.9219 6.3594 0.60156 12.602 1.1992 18.719 2.8789 5.5195 1.9219 10.559 4.4414 15.602 7.4414 4.4414 2.8789 8.6406 5.8789 12.48 9.7188 4.9219 5.3984 9.2383 11.16 14.039 16.559 2.2812 2.5195 4.6797 4.9219 6.8398 7.5586 2.2812 2.7617 4.1992 5.6406 6 8.7617 5.3984 10.801 9.4805 22.32 14.16 33.48 2.1602 5.3984 4.0781 11.039 6 16.559 0.96094 2.8789 2.0391 5.6406 3 8.3984 0.96094 2.6406 2.0391 5.1602 2.8789 7.8008 0.83984 4.8008 0.83984 9.8398 0.71875 14.641-0.23828 6.4805-1.0781 12.84-2.0391 19.199-0.96094 6.8398-1.9219 13.68-3.7188 20.398-0.83984 2.5195-1.9219 5.0391-3.1211 7.4414-0.96094 1.3203-2.0391 2.6406-3.2383 3.8398-0.96094 0.83984-1.9219 1.5586-3 2.1602-0.71875 0.35938-1.4414 0.60156-2.1602 0.83984-0.48047 0.12109-0.96094 0.12109-1.4414 0.12109-1.1992-0.12109-2.3984-0.35937-3.6016-0.71875-2.1602-0.71875-4.1992-1.5586-6.3594-2.2812 0.12109-0.35937 0.23828-0.83984 0.35938-1.1992 0.71875-3.1211 0.83984-6.3594 0.83984-9.6016 0.12109-2.5195-0.48047-5.1602-1.0781-7.5586-0.71875-3.1211-1.5586-6.2383-2.8789-9.2383-2.3984-5.5195-6.4805-10.199-10.32-14.641-2.5195-2.8789-5.1602-5.6406-7.6797-8.5195-3.9609-4.3203-7.9219-8.6406-12-12.719-1.3203-1.4414-3.7188-2.0391-5.7617-2.0391 0 0.12109-0.23828 0.12109-0.60156 0.12109-2.2812 0.23828-4.4414 1.4414-5.8789 3.1211-1.5586 1.8008-2.2812 4.3203-2.0391 6.6016 0.23828 2.5195 1.4414 4.1992 3.1211 5.8789 1.5586 1.6797 3.1211 3.2383 4.6797 4.9219 1.8008 2.0391 3.7188 4.0781 5.5195 6.1211 5.0391 5.5195 10.32 10.922 14.281 17.281 0.96094 2.0391 1.5586 4.0781 2.1602 6.2383 0.48047 2.0391 0.71875 4.0781 0.71875 6.2383-0.23828 2.5195-0.71875 4.9219-1.3203 7.3203-1.5586 4.5586-3.4805 8.7617-5.8789 12.961-1.1992 2.0391-2.3984 4.0781-3.6016 6-0.23828 0.35938-0.23828 0.83984-0.35938 1.3203-0.83984 1.0781-1.6797 2.2812-2.6406 3.3594-1.4414 1.5586-2.8789 3.1211-4.4414 4.5586-4.8008 3.9609-9.6016 7.9219-14.879 11.039-0.96094 0.48047-1.9219 0.83984-3 1.1992h-0.35938c-2.6406-0.83984-5.1602-1.6797-7.8008-2.5195-0.12109-3.1211-0.48047-6.3594-0.96094-9.3594-1.4414-7.5586-5.5195-14.16-9.2383-20.762-1.6797-2.8789-3.3594-5.7617-5.0391-8.6406-1.5586-2.5195-4.3203-3.7188-7.0781-3.7188-1.9219 0.12109-3.8398 0.60156-5.3984 1.6797-1.9219 1.3203-3.2383 3.4805-3.6016 5.7617-0.48047 2.5195 0.23828 4.5586 1.5586 6.6016 2.6406 4.1992 5.1602 8.5195 7.5586 12.84 1.4414 2.8789 2.8789 5.7617 3.7188 8.8789 0.48047 2.7617 0.60156 5.5195 0.71875 8.3984-1.0781 1.1992-1.9219 2.6406-2.1602 4.1992-0.35938 1.9219 0.23828 3.9609 1.1992 5.8789-0.12109 0.83984-0.23828 1.6797-0.35938 2.3984-1.4414 4.0781-3.2383 8.0391-5.3984 11.762-2.2812 3.4805-4.9219 6.6016-7.9219 9.4805-2.3984 2.0391-4.9219 3.9609-7.6797 5.5195-3 1.4414-6 2.6406-9.1211 3.6016-1.4414 0.23828-2.7617 0.35937-4.0781 0.48047-0.83984-0.12109-1.6797-0.23828-2.5195-0.35938-2.8789-1.0781-5.3984-2.6406-8.0391-4.3203-0.96094-0.60156-2.2812-0.83984-3.4805-0.83984-1.5586-7.3203-3.1211-14.762-4.5586-22.078-0.48047-2.3984-1.3203-4.3203-3.1211-5.8789-1.5586-1.3203-3.6016-2.0391-5.6406-2.0391h-0.60156c-4.5586 0.48047-8.7617 5.0391-7.9219 9.7188 1.1992 6.2383 2.2812 12.48 3.7188 18.719 1.3203 6.1211 2.8789 12.238 3.1211 18.602-0.12109 1.5586-0.35937 3-0.71875 4.4414-0.48047 1.0781-0.96094 2.1602-1.5586 3.2383-3.6016 5.1602-7.5586 9.8398-12 14.281-1.3203 1.0781-2.7617 2.1602-4.1992 3-1.1992 0.60156-2.5195 0.96094-3.8398 1.3203-5.1602 0.96094-10.441 1.0781-15.602 1.3203-2.7617 0.12109-5.5195 0.60156-8.0391 1.8008-1.8008 0.96094-3.6016 1.9219-5.3984 2.8789-2.1602 1.3203-4.3203 2.5195-6.4805 3.7188-1.5586 0.71875-3.1211 1.4414-4.8008 2.0391-1.0781 0.12109-2.0391 0.23828-3.1211 0.35938-1.0781 0-2.2812-0.12109-3.3594-0.12109-2.2812-0.12109-4.4414 0.48047-6.6016 1.1992-2.7617 1.0781-5.2812 3-7.5586 4.8008-2.8789 2.3984-5.8789 4.5586-9 6.4805-2.1602 0.96094-4.3203 1.9219-6.4805 2.5195-4.5586 0.96094-9.4805 1.0781-14.16 1.3203-5.625 0.46875-11.023 0.46875-16.422 0.58984-4.8008 0.12109-8.3984 5.2812-7.9219 9.7188 0.23828 2.2812 1.4414 4.4414 3.1211 5.8789 1.9219 1.5586 4.1992 2.0391 6.6016 2.0391 8.7617-0.23828 17.398-0.23828 26.039-1.1992 7.9219-0.83984 15-3.6016 21.602-7.9219 3.6016-2.3984 6.6016-5.3984 10.199-7.6797h0.71875c2.6406 0.12109 5.1602 0.23828 7.8008-0.12109 4.5586-0.60156 8.6406-2.7617 12.602-4.9219 2.7617-1.5586 5.3984-3.1211 8.1602-4.6797 0.60156-0.23828 1.1992-0.60156 1.9219-0.83984 3.2383-0.35938 6.6016-0.23828 9.8398-0.48047 4.1992-0.23828 8.1602-1.0781 12.238-2.0391 3.2383-0.83984 6.1211-2.3984 9-4.1992 3.2383-1.9219 5.7617-4.8008 8.3984-7.4414 2.6406-2.6406 4.9219-5.5195 7.1992-8.5195 1.6797-2.1602 3.2383-4.3203 4.6797-6.6016 2.3984-3.8398 3.7188-8.2812 4.3203-12.84 0.23828 0.12109 0.48047 0.35937 0.71875 0.48047 2.8789 1.3203 6.2383 2.0391 9.3594 2.2812 7.1992 0.48047 14.16-1.6797 20.52-4.6797 12.238-5.7617 21.48-15.84 27.84-27.48 2.1602-3.9609 3.6016-8.2812 4.8008-12.602 0.83984 0.23828 1.6797 0.60156 2.5195 0.96094 2.6406 0.96094 5.3984 1.8008 8.2812 1.4414 2.3984-0.23828 4.8008-0.83984 7.0781-1.6797 2.0391-0.71875 3.9609-2.0391 5.7617-3 2.0391-1.1992 4.0781-2.5195 6-3.9609 1.6797-1.1992 3.3594-2.6406 5.0391-3.8398 3.1211-2.5195 6-5.2812 8.8789-8.0391 3.1211-3 5.7617-6.6016 8.2812-9.9609 1.0781-1.4414 1.5586-3.1211 1.8008-4.8008 0.96094-1.5586 1.9219-3.1211 2.7617-4.8008 2.2812 0.83984 4.4414 1.6797 6.7188 2.5195 3.3594 1.0781 6.4805 1.6797 9.9609 1.8008 5.6406 0.12109 11.281-2.3984 15.719-5.7617 5.0391-3.7188 8.8789-8.7617 11.398-14.398 3.7188-8.3984 5.1602-17.52 6.4805-26.52 1.3203-8.6406 2.3984-17.398 2.5195-26.16 0-4.3125-0.11719-8.6328-0.35938-12.836zm-649.2 302.28c0.23828 0.35938 0.48047 0.71875 0.71875 1.0781 0.23828 0.48047 0.48047 0.83984 0.60156 1.1992-0.23828-0.48047-0.48047-0.83984-0.71875-1.3203-0.12109-0.35547-0.36328-0.71484-0.60156-0.95703zm310.08-138.84c-0.60156 11.762-3.1211 23.039-6.3594 34.199-1.8008 5.2812-3.9609 10.441-6 15.719-2.2812 5.7617-4.8008 11.398-7.9219 16.801-3 4.5586-6.1211 9-9.1211 13.559-2.7617 4.0781-5.7617 8.0391-9.2383 11.52-3.8398 3.9609-7.8008 7.8008-11.281 12.121-3 3.7188-6 7.4414-9.4805 10.801-2.8789 2.3984-6 4.4414-8.8789 6.7188-3.6016 2.7617-7.0781 5.6406-10.68 8.3984-6.8398 5.2812-14.039 9.8398-20.762 15.238-6.3594 5.0391-12.961 9.9609-19.441 15-6.1211 4.8008-12.238 9.7188-18.238 14.762-5.0391 4.3203-9.3594 9.2383-13.68 14.16-4.3203 5.0391-7.1992 11.039-10.68 16.68-3 4.9219-5.3984 10.199-8.2812 15.121-3.2383 5.3984-6.3594 10.68-9.4805 16.199-2.2812 4.0781 0.12109 9.3594 3.8398 11.398-0.48047 0.83984-0.83984 1.8008-0.96094 2.7617-0.35938 2.5195 0.35938 4.5586 1.5586 6.6016 1.1992 1.9219 2.3984 3.8398 3.4805 5.8789 0.35938 0.71875 0.60156 1.5586 0.83984 2.2812 0 0.23828 0.12109 0.60156 0.12109 0.83984-2.0391 1.8008-4.1992 3.4805-6.1211 5.3984-2.0391 1.9219-3.9609 4.3203-4.3203 7.1992-0.23828 2.0391-0.23828 3.9609 0.48047 5.7617 0.48047 1.3203 1.3203 2.6406 2.1602 3.9609 2.6406 4.0781 6.4805 6.9609 10.32 9.8398-0.23828 0.83984-0.60156 1.6797-0.83984 2.3984-0.71875 2.0391-1.8008 3.8398-2.6406 5.8789-0.96094 2.0391-1.8008 4.0781-2.7617 6.1211-1.4414 3.1211-2.8789 6.2383-4.4414 9.3594-0.60156 1.0781-1.1992 2.1602-1.8008 3.2383-1.0781 1.9219-2.7617 4.1992-2.8789 6.3594-0.12109 2.0391-0.23828 3.8398 0.71875 5.6406 0.60156 1.4414 1.4414 2.6406 2.6406 3.6016 0.96094 0.83984 2.0391 1.4414 3.1211 2.0391 0.71875 0.35938 1.5586 0.60156 2.3984 0.83984 0.71875 0.23828 1.4414 0.48047 2.0391 0.83984v0.12109c-3.7188 5.1602-8.5195 9.3594-13.199 13.68-1.6797 1.5586-3.3594 3-5.3984 4.1992-2.2812 1.4414-4.8008 2.6406-6.9609 4.1992-2.5195 1.9219-4.8008 3.9609-7.1992 6.2383-0.83984 0.83984-1.6797 1.6797-2.5195 2.5195-0.71875 0.83984-1.3203 1.6797-2.0391 2.5195-2.3984 1.6797-4.9219 3-7.4414 4.5586-2.3984 1.4414-4.8008 2.8789-7.1992 4.3203-0.12109 0-0.35938 0-0.48047 0.12109-0.96094 0.35938-1.8008 0.71875-2.6406 0.96094-2.2812 0.35938-4.6797 0.48047-7.0781 0.48047-4.5586-0.35938-9.1211-1.0781-13.68-0.35938-4.0781 0.60156-8.1602 1.4414-12.359 1.5586-1.4414-0.12109-2.8789-0.35938-4.3203-0.71875-3.6016-1.1992-7.0781-2.6406-10.801-3.4805-3.4805-0.71875-7.0781-0.83984-10.559-1.6797-1.3203-0.48047-2.6406-0.96094-3.8398-1.5586-2.3984-1.0781-4.9219-1.8008-7.5586-2.2812-2.1602-0.48047-4.3203-0.60156-6.4805-0.71875-1.8008-0.12109-3.4805-0.48047-5.1602-0.83984-1.3203-0.48047-2.6406-1.0781-3.8398-1.8008-2.2812-1.5586-4.5586-3.1211-7.0781-4.3203-3.1211-1.4414-6.3594-2.5195-9.3594-4.0781-0.83984-0.60156-1.6797-1.3203-2.5195-2.1602-2.5195-3-4.6797-6-6.6016-9.3594-0.60156-1.0781-1.0781-2.1602-1.6797-3.2383-1.0781-2.1602-2.2812-3.8398-4.5586-4.9219-0.35938-0.23828-0.83984-0.12109-1.1992-0.23828 0-0.12109-0.12109-0.23828-0.12109-0.35938-0.35938-2.3984-0.71875-4.9219-1.1992-7.3203-0.48047-2.3984-1.0781-4.6797-1.6797-6.9609 0-0.35938-0.12109-0.60156-0.12109-0.96094 0-0.12109 0-0.23828 0.12109-0.35938 0.23828-0.48047 0.48047-0.96094 0.71875-1.4414 1.3203-1.8008 3-3.4805 4.4414-5.1602 2.3984-2.6406 4.5586-5.7617 6.3594-8.8789 1.4414-2.5195 2.3984-5.2812 2.7617-8.1602v-0.83984c3.1211 0.35938 6.1211 0.83984 9.1211 1.6797 4.9219 1.3203 9.7188 2.6406 14.641 3.9609 4.4414 1.1992 8.8789 2.0391 13.441 2.8789 6 1.0781 12.121 1.0781 18.238 1.0781 6.1211-0.12109 12-1.5586 17.879-3 2.3984-0.60156 4.3203-1.1992 5.8789-3.1211 1.5586-1.8008 2.2812-4.1992 2.0391-6.6016-0.23828-2.2812-1.4414-4.4414-3.1211-5.8789-1.6797-1.3203-4.4414-2.5195-6.6016-2.0391-3.6016 0.83984-7.1992 1.8008-10.801 2.2812-3.8398 0.60156-7.6797 0.71875-11.52 0.71875-9.6016-0.48047-18.961-2.8789-28.199-5.3984-3.4805-0.96094-6.9609-2.0391-10.441-2.7617-3.9609-0.83984-7.9219-1.3203-11.879-1.9219-0.35938 0-0.83984-0.12109-1.1992-0.12109-1.8008 0-3.4805 0.60156-4.9219 1.4414-0.60156-0.71875-1.1992-1.4414-1.6797-2.1602-0.23828-0.48047-0.35938-0.96094-0.60156-1.3203l0.007813-0.10938c0.12109-0.35938 0.35938-0.71875 0.48047-1.0781 0.71875-0.96094 1.4414-1.9219 2.2812-2.8789 2.0391-1.6797 4.3203-3 6.6016-4.4414 3.8398-2.3984 6.4805-6.2383 7.1992-10.68v-0.71875c4.3203 1.1992 8.5195 2.3984 12.84 3.4805 11.039 3.3594 21.961 6.9609 33.121 9.7188 12.48 3.1211 24.961 5.8789 37.441 8.7617 4.6797 1.0781 9.4805-2.7617 10.199-7.3203 0.83984-5.0391-2.6406-9.1211-7.3203-10.199-9.6016-2.1602-19.199-4.3203-28.922-6.6016-8.6406-2.0391-17.281-4.4414-25.922-6.9609-4.4414-1.4414-8.8789-2.7617-13.32-4.0781-6.1211-1.9219-12.48-3.4805-18.602-5.1602-0.48047-0.12109-0.96094-0.23828-1.4414-0.23828-1.3203 0-2.7617 0.48047-3.9609 1.0781-0.23828-0.48047-0.48047-0.96094-0.83984-1.3203-2.1602-3.3594-4.9219-6.1211-7.5586-8.8789-1.3203-1.4414-2.5195-3-3.6016-4.6797-0.23828-0.48047-0.48047-1.0781-0.60156-1.5586 0-0.35938-0.12109-0.60156-0.12109-0.96094v-0.12109c0-0.12109 0.12109-0.23828 0.23828-0.35938 1.0781-0.83984 2.2812-1.5586 3.3594-2.2812 0.71875-0.35938 1.5586-0.71875 2.3984-0.96094 0.71875-0.12109 1.4414-0.23828 2.1602-0.23828 3.1211 0.23828 6.2383 0.83984 9.3594 1.3203 3.6016 0.48047 6.9609-1.0781 8.8789-3.9609 1.3203 0.60156 2.7617 1.1992 4.0781 1.8008 3.3594 1.5586 6.4805 3.4805 9.8398 4.9219 7.3203 3.2383 15.238 4.5586 22.922 6.7188 2.2812 0.83984 4.4414 1.6797 6.7188 2.7617 3.6016 1.5586 7.3203 3 11.039 4.0781 2.6406 0.71875 5.2812 1.4414 7.9219 1.5586 3 0.23828 6 0.23828 9 0.23828 4.4414 0.35938 8.5195 1.5586 12.84 2.5195 3.9609 0.83984 8.0391 0.71875 12.121 0.60156h3.4805c2.1602 0.23828 4.3203 0.48047 6.6016 0.83984 3.2383 0.48047 6.3594 0.60156 9.7188 0.71875 5.2812 0 10.559-0.96094 15.719-1.5586 4.8008-0.60156 8.3984-4.9219 7.9219-9.7188-0.48047-4.8008-5.0391-8.5195-9.8398-7.9219-5.3984 0.71875-10.68 1.4414-16.078 1.5586-3.4805-0.23828-6.8398-0.96094-10.32-1.3203-2.8789-0.35938-5.8789-0.23828-8.7617-0.23828h-3.1211c-3.8398-0.35938-7.4414-1.1992-11.281-2.1602-4.1992-1.0781-8.5195-1.0781-12.84-1.0781-3-0.12109-6-0.60156-8.8789-1.4414-2.3984-0.83984-4.6797-1.6797-6.9609-2.6406-2.7617-1.1992-5.3984-2.3984-8.2812-3.3594-5.7617-1.8008-11.52-3-17.281-4.5586-1.9219-0.60156-3.7188-1.3203-5.6406-2.1602-1.4414-0.60156-2.8789-1.4414-4.3203-2.2812 0.83984-2.5195 1.6797-5.0391 2.3984-7.5586 0.96094-3.1211 1.5586-6.3594 2.1602-9.6016 1.0781-6.6016 1.8008-13.441 0.96094-20.039-0.35937-3-0.35937-6.1211-0.48047-9-0.12109-3.7188-1.1992-7.1992-2.2812-10.801-2.0391-6.2383-4.9219-12.121-8.0391-17.879v-0.12109c0.12109 0.23828 0.23828 0.60156 0.48047 0.83984-1.8008-3.4805-3.8398-6.7188-5.6406-10.199-1.8008-3.4805-3.6016-7.0781-5.7617-10.441-2.1602-3.2383-4.4414-6.4805-6.3594-9.8398-1.8008-3-3.3594-6-5.2812-8.8789-2.0391-2.8789-4.4414-5.3984-6.8398-8.0391-3.1211-3.3594-5.3984-7.3203-7.8008-11.16-1.5586-2.3984-3.1211-4.6797-4.8008-7.0781-1.5586-2.1602-3.2383-4.1992-4.6797-6.4805-1.4414-3-2.3984-6.2383-3.7188-9.3594-1.4414-3.7188-3.4805-7.0781-5.3984-10.559-1.6797-3.4805-3-6.9609-4.0781-10.68-1.0781-3.3594-2.5195-6.6016-3.6016-9.9609-0.71875-4.3203-0.96094-8.6406-1.8008-12.84-0.83984-4.1992-1.9219-8.3984-2.3984-12.602-0.48047-4.4414-0.35938-9-0.83984-13.441-0.60156-5.5195-1.4414-11.039-2.5195-16.559 0-0.12109-0.12109-0.23828-0.12109-0.35938 0.71875 0 1.5586 0.23828 2.2812 0.23828 2.5195 0.12109 4.5586 0 6.6016-1.5586 1.9219-1.3203 3.2383-3.4805 3.6016-5.7617 0.35938-2.2812-0.23828-4.6797-1.5586-6.6016-1.1992-1.6797-3.6016-3.4805-5.7617-3.6016-6.1211-0.23828-12.238-1.0781-18.238-2.5195-2.1602-0.48047-4.1992-1.0781-6.3594-1.1992-4.6797-0.48047-9.2383 0.96094-12.84 3.9609-2.1602 1.8008-4.1992 3.9609-6.2383 6-2.1602 1.8008-4.4414 3.4805-6.8398 4.9219-1.6797 0.83984-3.4805 1.5586-5.2812 2.0391-5.1602 0.96094-10.441 0.96094-15.121 3.2383-2.5195 1.1992-4.8008 2.7617-7.1992 4.0781-1.6797 0.96094-3.3594 1.9219-5.1602 2.8789-2.7617 1.4414-5.5195 2.7617-8.5195 3.7188-0.71875 0.12109-1.4414 0.23828-2.1602 0.23828-0.48047-0.71875-0.96094-1.5586-1.4414-2.2812-0.71875-1.3203-1.5586-2.1602-2.6406-3.2383-1.1992-1.3203-2.6406-2.6406-4.1992-3.2383-1.1992-0.48047-2.3984-0.96094-3.7188-1.3203-1.8008-0.23828-3.6016-0.23828-5.5195-0.12109-1.3203 0-2.6406 0.35938-3.8398 0.60156-3.7188 0.71875-7.3203 1.4414-11.039 1.5586-1.9219-0.12109-3.8398-0.60156-5.6406-1.0781 0 0-0.12109 0-0.23828-0.12109-0.23828-1.9219-0.12109-3.8398-0.12109-5.8789 0-4.5586-1.3203-9.4805-4.9219-12.359-0.96094-0.71875-2.0391-1.3203-3.1211-1.8008-1.9219-0.83984-3.8398-0.83984-5.8789-0.71875-1.6797 0.12109-3.3594 0.71875-4.9219 1.1992-1.4414 0.35938-2.8789 0.71875-4.3203 1.0781-5.1602 1.1992-10.441 2.0391-15.719 2.1602-1.0781-0.12109-2.0391-0.23828-3.1211-0.48047-0.35937-0.12109-0.60156-0.23828-0.96094-0.48047-0.71875-0.60156-1.3203-1.1992-1.9219-1.8008-0.96094-0.96094-1.8008-2.0391-2.7617-3-0.83984-0.96094-1.5586-1.8008-2.2812-2.8789 0-0.35938 0.12109-0.71875 0.23828-1.0781 0.48047-1.1992 1.0781-2.2812 1.8008-3.4805 0.96094-1.3203 1.8008-2.7617 2.7617-4.0781 1.4414-2.0391 2.2812-4.0781 2.0391-6.6016-0.23828-2.2812-1.4414-4.4414-3.1211-5.8789-1.5586-1.3203-3.7188-2.0391-5.8789-2.0391-1.6797 0.35938-3.1211 1.0781-4.5586 1.9219-0.12109-0.23828-0.23828-0.60156-0.35938-0.83984-1.3203-1.9219-3.4805-3.2383-5.7617-3.6016-2.5195-0.35938-4.5586 0.35938-6.6016 1.5586-2.2812 1.3203-4.6797 2.6406-6.9609 3.9609-4.6797 2.3984-9.4805 4.6797-14.52 6-1.1992 0.23828-2.3984 0.35938-3.6016 0.48047-0.83984-0.12109-1.5586-0.23828-2.2812-0.48047-0.48047-0.12109-0.83984-0.35938-1.1992-0.48047-0.35938-0.23828-0.60156-0.60156-0.96094-0.83984-0.23828-0.35938-0.48047-0.60156-0.71875-0.96094-0.12109-0.35938-0.23828-0.71875-0.35938-0.96094-0.23828-1.5586-0.48047-3-0.48047-4.5586 0.23828-3 0.83984-6 1.5586-8.8789 1.0781-4.6797-2.7617-9.4805-7.3203-10.199-0.48047-0.12109-0.96094-0.12109-1.4414-0.12109-3.7188 0-6.6016 2.2812-8.0391 5.3984-0.96094-0.60156-2.1602-1.0781-3.3594-1.3203-2.5195-0.48047-4.5586 0.35938-6.6016 1.5586-6.8398 4.0781-13.68 8.0391-20.52 12 0 0 0.12109 0 0.12109-0.12109-4.8008 2.5195-9.4805 4.9219-14.762 6.4805-1.3203 0.23828-2.7617 0.48047-4.0781 0.48047-0.35938 0-0.60156-0.12109-0.96094-0.12109-0.23828-0.35938-0.48047-0.71875-0.71875-1.0781-0.96094-2.0391-1.9219-4.1992-2.6406-6.3594 0-0.35938-0.12109-0.83984-0.12109-1.1992 0.12109-0.60156 0.12109-1.0781 0.23828-1.6797 1.3203-3.6016 3.1211-7.0781 4.8008-10.441 2.1602-4.3203 0-9.8398-4.3203-11.762-1.1992-0.60156-2.3984-0.83984-3.6016-0.83984-3.6016 0-6.7188 2.0391-8.2812 5.1602-1.3203 2.6406-2.6406 5.2812-3.7188 8.0391-0.48047 1.3203-0.96094 2.5195-1.4414 3.8398-0.35937 1.1992-0.71875 2.2812-0.96094 3.4805-0.48047 1.9219-0.48047 4.0781-0.35938 6 0 0.23828 0.12109 0.48047 0.12109 0.71875-1.0781 0.60156-2.0391 1.3203-2.8789 2.1602-2.7617 2.8789-5.3984 5.6406-8.1602 8.3984-3 2.5195-6.2383 5.0391-9.6016 7.0781-1.3203 0.60156-2.5195 1.0781-3.9609 1.5586-0.96094 0.23828-2.0391 0.35938-3 0.35938-3-0.23828-6-0.96094-9-1.8008-0.96094-0.35938-1.9219-0.71875-2.7617-1.1992h-0.12109c0-0.12109-0.12109-0.23828-0.12109-0.35938-0.35938-1.9219-0.48047-3.8398-0.60156-5.7617 0.12109-2.3984 0.48047-4.8008 0.71875-7.0781 0.35938-2.8789-0.60156-5.5195-2.5195-7.4414 0-2.6406-0.12109-5.3984 0-8.0391 0.48047-8.8789 1.9219-17.52 3.2383-26.281 1.3203-8.6406 3-17.039 5.3984-25.441 2.6406-8.2812 5.6406-16.559 9.1211-24.48 3.6016-8.2812 8.1602-16.32 12.84-24 7.5586-11.879 16.441-23.16 26.641-32.879 11.398-10.441 23.281-20.039 36-28.801 6.3594-4.3203 13.078-8.1602 19.68-12.238 6.2383-3.8398 12.602-7.4414 19.078-10.922 7.0781-3.8398 14.398-7.4414 21.719-10.801 3.7188-1.6797 7.3203-3.2383 11.039-4.5586 3.1211-1.0781 6.3594-2.0391 9.6016-2.7617 5.5195-1.0781 11.16-1.1992 16.68-1.1992h6.8398 9.3594c3.8398 0.23828 7.6797 0.71875 11.398 1.6797 3.8398 1.1992 7.6797 2.5195 11.281 4.3203 0.23828 0.23828 0.48047 0.35938 0.71875 0.60156 0.35938 0.48047 0.71875 0.96094 0.96094 1.4414 0.96094 2.1602 1.8008 4.4414 2.7617 6.7188 1.4414 3.6016 3.3594 6.8398 5.2812 10.199 0.83984 1.8008 1.4414 3.4805 1.9219 5.3984 1.8008 7.9219 3.7188 15.719 4.0781 23.879 0.23828 4.3203 0 8.6406 0.35938 12.961 0.35938 3.9609 1.0781 7.9219 1.9219 11.879 0.83984 4.1992 1.1992 8.5195 1.4414 12.84 0.23828 4.6797 0.60156 9.4805 1.1992 14.16 0.48047 3.9609 1.5586 7.9219 1.9219 11.879 0.35938 4.0781 0.48047 8.1602 0.48047 12.238 0.12109 5.1602 0.83984 10.078 3 14.879 0.83984 1.9219 1.9219 3.8398 2.8789 5.6406 1.0781 2.1602 1.9219 4.4414 2.5195 6.7188 0.71875 2.3984 1.3203 4.8008 2.0391 7.1992 0.96094 3 2.1602 5.6406 3.7188 8.3984 2.2812 4.0781 5.7617 7.1992 9 10.559 3.6016 4.0781 6.6016 9 11.16 12.121 2.7617 1.9219 5.5195 3.3594 8.6406 4.4414 2.0391 0.71875 4.0781 1.5586 6 2.6406 2.6406 1.8008 5.1602 3.8398 7.9219 5.3984 3.1211 1.8008 6.6016 2.8789 10.078 4.1992 2.8789 1.0781 5.6406 2.1602 8.2812 3.3594 3.4805 1.5586 6.9609 2.7617 10.559 3.8398 6 1.6797 12.238 1.9219 18.359 2.7617 3.1211 0.48047 6.3594 0.71875 9.6016 0.48047 1.6797-0.12109 3.2383-0.60156 4.9219-0.60156 0.83984 0 1.8008 0.12109 2.6406 0.23828 0.60156 0.71875 1.1992 1.5586 1.6797 2.3984 0.60156 1.1992 1.0781 2.5195 1.5586 3.8398 0.71875 4.0781 0.96094 8.3984 1.4414 12.48 0.48047 4.8008 5.0391 8.3984 9.7188 7.9219 4.9219-0.48047 8.2812-4.9219 7.9219-9.7188-0.23828-3-0.60156-5.8789-0.83984-8.8789-0.60156-5.3984-2.1602-10.441-4.8008-15.121-1.5586-2.7617-3.7188-5.3984-6.2383-7.3203-2.3984-1.9219-5.2812-2.7617-8.2812-3.1211-2.6406-0.35938-5.3984-0.60156-8.0391-0.35938-0.96094 0.12109-2.0391 0.35938-3.1211 0.48047 0.96094-1.1992 1.6797-2.5195 1.8008-3.8398 0.12109-4.4414 0.12109-8.7617 0.23828-13.199 0.12109-2.5195 0.48047-5.0391 1.0781-7.4414 1.0781-3 2.2812-5.8789 3.4805-8.8789 1.5586-4.0781 2.8789-8.2812 5.0391-12.121 5.7617-8.2812 12.961-15.121 20.16-21.961 6.1211-5.3984 12.602-10.32 19.68-14.398 2.3984-1.1992 4.9219-2.3984 7.3203-3.6016 3-1.4414 5.7617-3.1211 8.7617-4.6797 6.2383-3.1211 12.48-6.1211 18.961-8.7617 6.2383-2.6406 12.602-5.0391 19.078-7.3203 6.2383-2.2812 12.48-4.4414 18.961-6.2383 8.7617-1.9219 17.762-2.7617 26.641-4.1992 5.1602-0.83984 10.199-1.8008 15.359-2.1602 4.9219-0.35938 10.078 0 15 0.12109-0.83984 0-1.5586 0-2.3984-0.12109 2.7617 0.12109 5.6406 0.23828 8.3984 0.35938 3.2383 0.12109 6.4805 0.23828 9.6016 0.71875 3.2383 0.35938 6.3594 1.0781 9.6016 1.5586 7.0781 1.1992 14.281 2.1602 21.238 4.0781 4.5586 1.5586 9.1211 3.3594 13.68 4.6797 3.9609 1.1992 8.1602 1.9219 12.238 3 2.6406 0.96094 5.0391 2.1602 7.4414 3.6016 2.6406 1.5586 5.3984 2.8789 7.9219 4.4414 3.7188 2.5195 6.9609 5.5195 10.559 8.1602 4.6797 3.6016 10.441 5.6406 15.602 8.5195 3.7188 2.7617 7.0781 6 10.801 8.7617 1.9219 1.4414 3.8398 2.7617 5.7617 3.9609 1.4414 0.96094 2.7617 2.1602 4.0781 3.4805 2.0391 2.5195 3.7188 5.2812 5.3984 7.9219 2.0391 3.2383 4.8008 6 7.4414 8.8789-0.35938-0.35938-0.71875-0.83984-1.0781-1.1992 0.60156 0.60156 1.1992 1.3203 1.8008 1.9219 1.8008 2.0391 3.4805 4.1992 4.9219 6.6016 1.8008 3.4805 3.2383 7.0781 5.2812 10.559 1.8008 3.1211 3.9609 6.1211 5.8789 9.2383 2.2812 4.8008 3.3594 9.9609 5.2812 14.879 0.96094 2.5195 2.1602 5.0391 3.4805 7.4414 0.96094 1.8008 1.5586 3.8398 2.0391 5.8789 1.0781 4.9219 1.9219 9.8398 3.6016 14.52 1.5586 4.1992 3.4805 8.2812 4.6797 12.602 0.71875 3.8398 1.1992 7.5586 1.9219 11.398 0.83984 4.1992 2.0391 8.3984 3.1211 12.602 0.48047 2.1602 0.83984 4.3203 1.0781 6.4805 0.23828 2.3984 0.23828 4.8008 0.35938 7.1992 0.14453 4.3398 0.14453 8.6602 0.023437 12.98z"/>
 <path d="m1026.7 334.8c1.0781 1.9219 3.7188 3.2383 5.7617 3.6016 2.2812 0.35938 4.6797-0.23828 6.6016-1.5586s3.2383-3.4805 3.6016-5.7617c0.48047-2.5195-0.35938-4.4414-1.5586-6.6016-4.0781-7.3203-11.039-12.48-18.48-16.078-2.8789-1.3203-6.2383-2.2812-9.3594-2.8789-1.3203-0.23828-2.7617-0.35938-4.0781-0.35938-3.4805-0.23828-6.9609 0.60156-10.32 2.0391-4.4414 1.9219-6.9609 6.8398-5.1602 11.52 1.6797 4.3203 7.0781 7.0781 11.52 5.1602 0.71875-0.35937 1.4414-0.60156 2.0391-0.83984 0.60156-0.12109 1.1992-0.12109 1.9219-0.23828 1.3203 0.12109 2.5195 0.35937 3.7188 0.71875 2.2812 0.83984 4.4414 1.9219 6.4805 3.1211 1.5586 1.1992 3 2.3984 4.4414 3.8398 1.0742 1.3164 2.0312 2.7539 2.8711 4.3164z"/>
 <path d="m956.64 371.76c2.2812-0.23828 4.4414-1.4414 5.8789-3.1211 1.5586-1.9219 1.9219-3.9609 2.0391-6.2383 0-0.35938 0.12109-0.60156 0.12109-0.96094 0.23828-0.71875 0.60156-1.3203 0.96094-2.0391 0.60156-0.71875 1.0781-1.4414 1.8008-2.1602 0.96094-0.71875 1.9219-1.4414 2.8789-2.0391 0.12109 0 0.23828-0.12109 0.35938-0.12109 0.23828 0 0.48047 0.12109 0.71875 0.12109 0.60156 0.23828 1.0781 0.48047 1.6797 0.71875 4.4414 2.0391 9.7188 0 11.762-4.3203 2.0391-4.4414 0-9.7188-4.3203-11.762-3.4805-1.5586-6.8398-2.3984-10.559-2.3984-0.48047-0.23828-0.83984-0.23828-1.1992-0.23828-1.9219 0.12109-3.8398 0.83984-5.6406 1.6797-2.1602 0.96094-4.3203 2.2812-6.1211 3.8398-3.1211 2.5195-5.2812 5.3984-7.3203 8.7617-0.60156 0.96094-1.0781 2.0391-1.4414 3.1211-0.35938 1.3203-0.71875 2.5195-1.0781 3.8398-0.48047 1.6797-0.23828 3.7188-0.23828 5.3984 0 2.1602 1.5586 4.5586 3.1211 5.8789 1.7969 1.5586 4.1953 2.2773 6.5977 2.0391z"/>
 <path d="m937.68 399.24c-1.0781 1.6797-2.2812 3.3594-2.8789 5.2812-0.71875 2.1602-0.96094 3.2383-0.96094 5.5195 0 1.8008 0.48047 3.4805 0.83984 5.1602 0.35937 1.4414 2.3984 3.9609 3.6016 4.8008 1.0781 0.71875 2.1602 1.4414 3.3594 2.0391 1.5586 0.83984 3.3594 1.3203 5.1602 1.8008-0.48047 4.3203-1.9219 8.5195-2.8789 12.719-1.1992 5.3984-1.8008 11.281-0.60156 16.801 0.48047 2.3984 1.1992 4.3203 3.1211 5.8789 1.8008 1.5586 4.1992 2.2812 6.6016 2.0391 2.2812-0.23828 4.4414-1.4414 5.8789-3.1211 1.4414-1.6797 2.5195-4.4414 2.0391-6.6016-0.35938-1.6797-0.48047-3.3594-0.60156-5.0391 0.48047-4.9219 1.6797-9.7188 2.7617-14.52 0.35938-1.4414 0.71875-2.8789 0.96094-4.3203 0.35938-1.6797 0.35938-3.4805 0.35938-5.0391 0-1.5586-0.12109-3.3594-0.71875-4.9219-1.1992-3.1211-2.8789-5.5195-5.3984-7.8008-1.3203-1.1992-3-1.9219-4.6797-2.3984l0.23828-0.23828c0.71875-0.48047 1.4414-0.96094 2.1602-1.4414 1.5586-0.71875 3.1211-1.4414 4.6797-2.1602 4.4414-1.9219 6.9609-6.8398 5.1602-11.52-1.3203-3.3594-4.8008-5.7617-8.3984-5.7617-0.96094-0.12109-2.0391 0.12109-3 0.48047-2.1602 0.96094-4.0781 1.9219-6.1211 3-2.6406 1.4414-5.0391 2.8789-7.1992 5.0391-1.3242 1.3242-2.4023 2.7656-3.4844 4.3242z"/>
 <path d="m1012.8 364.32c-3.3594-0.60156-6.7188-0.96094-10.199-1.0781-2.0391 0-4.4414 1.5586-5.7617 3.2383-1.5586 1.8008-2.2812 4.1992-2.0391 6.6016 0.23828 2.2812 1.4414 4.4414 3.1211 5.8789 1.9219 1.5586 3.8398 1.9219 6.2383 2.0391 1.9219 0.12109 3.8398 0.60156 5.7617 0.83984 4.8008 0.83984 9.4805-2.5195 10.199-7.3203 0.83984-4.8008-2.5195-9.3594-7.3203-10.199z"/>
 <path d="m199.68 330.96c-0.35938 0.12109-0.71875 0.12109-0.96094 0.12109-5.0391 0.60156-10.199 0.96094-15.121 2.1602-4.6797 1.0781-8.7617 3-12.602 5.7617-3.3594 2.3984-6 5.7617-8.6406 9-5.6406 6.9609-10.559 14.879-12.84 23.641-1.0781 4.1992-1.9219 8.5195-2.6406 12.84-0.83984 4.8008 2.6406 9.4805 7.3203 10.199 4.8008 0.83984 9.3594-2.5195 10.199-7.3203 0.71875-3.9609 1.4414-7.9219 2.5195-11.879 1.0781-3.2383 2.5195-6.2383 4.1992-9.1211 2.7617-4.1992 5.7617-8.3984 9.2383-12 0.96094-0.83984 2.0391-1.6797 3.2383-2.3984 1.0781-0.48047 2.2812-0.96094 3.4805-1.4414 4.4414-0.83984 9-1.3203 13.559-1.8008 4.8008-0.48047 8.3984-4.9219 7.9219-9.8398-0.47266-4.4414-4.4297-7.9219-8.8711-7.9219z"/>
 <path d="m270.6 334.92c-0.48047-4.9219-4.9219-8.2812-9.7188-7.9219h-0.48047c0-0.48047-0.12109-1.0781-0.23828-1.5586-0.35937-2.0391-1.1992-3.6016-2.2812-5.2812-0.96094-1.3203-2.0391-2.1602-3.4805-2.8789-1.0781-0.60156-2.2812-1.0781-3.4805-1.3203-0.96094 0-1.9219-0.12109-2.7617-0.12109-1.3203 0.12109-2.3984 0.12109-3.6016 0.23828-4.5586 0.48047-9.7188 0.96094-13.32 4.1992-5.7617 5.1602-8.7617 12.121-11.762 19.078-1.9219 4.4414-0.12109 9.7188 4.3203 11.762 4.3203 2.0391 9.8398 0.12109 11.762-4.3203 1.5586-3.4805 3-6.9609 4.8008-10.199 0.48047-0.71875 0.96094-1.4414 1.5586-2.0391 0.23828 1.5586 0.60156 3.1211 1.5586 4.3203 0.23828 0.35938 0.60156 0.60156 0.83984 0.96094 0.96094 1.3203 2.1602 2.1602 3.4805 2.8789 4.4414 2.6406 9.8398 2.2812 14.879 1.9219 4.8047-0.35938 8.4023-5.0391 7.9258-9.7188z"/>
 <path d="m291.36 403.56c-0.35938-3.4805-0.23828-7.0781-0.83984-10.559-0.71875-4.6797-2.7617-9.8398-7.3203-11.879-1.0781-0.48047-2.0391-0.71875-3.1211-0.96094 0-0.12109 0.12109-0.23828 0.12109-0.35938 1.9219-4.4414 0.12109-9.7188-4.3203-11.762-1.1992-0.48047-2.3984-0.83984-3.6016-0.83984-3.6016-0.12109-6.9609 1.8008-8.3984 5.0391-2.2812 5.3984-5.5195 11.52-3.2383 17.52 1.6797 4.4414 5.8789 6.9609 10.441 7.4414 0.71875 0.12109 1.3203 0.12109 2.0391 0.12109 0.12109 1.3203 0.23828 2.7617 0.23828 4.0781 0 1.0781 0.12109 2.1602 0.23828 3.3594 0.23828 3.8398 1.9219 6.9609 4.0781 10.078 2.7617 3.9609 8.5195 4.8008 12.359 2.0391 3.9609-2.8789 4.8008-8.3984 2.0391-12.359-0.23438-0.35547-0.47266-0.71484-0.71484-0.95703z"/>
 <path d="m482.52 699.24c0 0.12109 0.12109 0.23828 0.12109 0.35938 0.23828 0.48047 0.60156 0.96094 0.83984 1.4414-0.35938-0.59766-0.60156-1.1992-0.96094-1.8008z"/>
 <path d="m526.68 880.56c-2.0391 0.12109-4.0781 0.12109-6.2383 0.12109-8.3984-0.35938-16.801-1.1992-24.961-3.4805-5.0391-1.6797-9.8398-3.9609-14.52-6.6016-1.0781-0.60156-2.2812-0.83984-3.4805-0.83984-3.4805 0-6.8398 2.1602-8.2812 5.2812-0.96094 2.1602-1.0781 4.6797-0.23828 6.8398 0.83984 2.2812 2.5195 3.7188 4.5586 4.9219 4.5586 2.5195 9.2383 4.8008 14.281 6.4805 6.2383 2.1602 12.48 3.2383 18.961 4.0781 7.1992 0.96094 14.52 1.1992 21.719 0.96094 4.8008-0.12109 8.3984-5.2812 7.9219-9.8398-0.23828-2.2812-1.4414-4.4414-3.1211-5.8789-1.9219-1.5625-4.2031-2.043-6.6016-2.043z"/>
 <path d="m736.08 522.36c-3.2383-1.0781-6.4805-1.1992-9.8398-0.48047-3.4805 0.71875-7.0781 1.5586-10.441 2.6406-4.8008 1.4414-9.6016 2.8789-14.52 4.1992-6.2383 1.6797-12.359 3.7188-17.641 7.5586-2.6406 1.9219-5.0391 4.3203-7.3203 6.6016-1.8008 1.6797-3.4805 3.4805-5.1602 5.2812-3 3.2383-5.7617 7.0781-8.3984 10.559-2.1602 2.8789-4.3203 5.7617-6.3594 8.7617-3.6016 4.9219-7.0781 10.078-11.398 14.52-0.35938-4.0781-0.35938-8.2812-0.48047-12.359-0.12109-4.5586-0.23828-9.2383-0.35938-13.801-0.12109-4.1992-0.35938-8.3984-0.48047-12.719-0.23828-3.8398-0.48047-7.8008-1.0781-11.641-0.48047-3.2383-1.1992-6.4805-2.3984-9.6016-0.96094-2.5195-2.5195-5.0391-4.8008-6.6016-1.1992-1.0781-2.6406-1.6797-4.1992-1.9219-0.48047-0.12109-1.0781-0.12109-1.8008-0.12109-0.96094 0.23828-2.3984 0.35938-3.4805 0.83984-1.6797 0.71875-3.2383 1.5586-4.5586 3-1.0781 1.1992-1.8008 2.5195-2.6406 3.9609-1.3203 2.3984-2.1602 4.9219-3.2383 7.3203-1.6797 4.0781-3.2383 8.2812-4.9219 12.48-1.5586 4.0781-3.1211 8.1602-4.6797 12.238-3.7188 9.7188-7.6797 19.199-13.078 28.078-2.3984 3.6016-4.9219 7.0781-7.9219 10.199-1.1992 0.96094-2.3984 1.9219-3.7188 2.7617-0.23828 0.12109-0.60156 0.23828-0.83984 0.35938-0.23828-0.35938-0.35938-0.60156-0.60156-0.96094-1.3203-2.8789-2.2812-6-3.3594-9-0.83984-2.1602-1.5586-4.4414-2.2812-6.6016-1.8008-4.9219-3.4805-9.9609-5.2812-14.879-3.8398-10.559-8.2812-20.641-14.641-29.879-1.8008-2.6406-3.8398-5.1602-6.1211-7.4414-0.96094-0.96094-1.9219-1.9219-3-2.8789-1.1992-1.0781-2.7617-1.9219-4.1992-2.7617-0.35938-0.23828-0.71875-0.35937-1.0781-0.48047-1.1992-0.35938-2.2812-0.71875-3.4805-1.0781-2.0391-0.12109-3.7188-0.23828-5.7617 0.35938-3.4805 1.0781-6.3594 3.7188-7.5586 7.1992-1.4414 4.3203-1.1992 8.8789-1.1992 13.32 0 2.1602 0 4.1992 0.12109 6.2383 0.23828 4.8008 0.35938 9.6016 0.71875 14.398 0.71875 9.4805 1.4414 19.078 2.1602 28.559 0.83984 10.078 1.5586 20.16 2.2812 30.359 0.71875 10.199 1.1992 20.398 1.6797 30.602 0.83984 18.602 0.48047 37.199 0.96094 55.801 0.12109 3.1211 0.12109 6.2383 0.23828 9.3594 0.12109 2.6406 0.23828 5.1602 0.48047 7.8008 0.23828 3.6016 1.0781 7.1992 1.8008 10.801 0.48047 2.3984 1.3203 4.3203 3.1211 5.8789s4.1992 2.2812 6.6016 2.0391c2.2812-0.23828 4.4414-1.4414 5.8789-3.1211 1.4414-1.6797 2.3984-4.4414 2.0391-6.6016-0.60156-3.1211-1.1992-6.2383-1.6797-9.3594-0.35937-3-0.48047-6-0.60156-8.8789-0.12109-2.7617-0.12109-5.3984-0.23828-8.1602-0.12109-5.0391-0.23828-10.078-0.23828-15.121-0.12109-8.8789-0.12109-17.762-0.35938-26.641-0.48047-19.559-1.3203-39-2.8789-58.441-0.96094-11.762-2.0391-23.52-2.7617-35.281-0.60156-8.7617-1.1992-17.398-1.4414-26.16 1.5586 2.2812 3 4.5586 4.3203 6.9609 5.8789 11.281 9.7188 23.52 13.922 35.52 1.6797 4.9219 3.2383 10.078 5.5195 14.762 1.3203 2.5195 2.6406 4.6797 4.5586 6.7188 2.2812 2.2812 5.0391 3.8398 8.1602 4.5586 6.4805 1.6797 13.078-1.3203 18.238-5.2812 4.6797-3.7188 8.3984-8.6406 11.762-13.559 3.7188-5.5195 6.8398-11.281 9.7188-17.281 3.4805-7.3203 6.2383-15 9-22.68 0.48047-1.1992 0.83984-2.2812 1.3203-3.4805 0 0.60156 0 1.0781 0.12109 1.6797 0.23828 4.5586 0.23828 9 0.35938 13.441 0.12109 3.7188 0.12109 7.3203 0.35938 10.922 0.12109 3.2383 0.23828 6.6016 0.48047 9.8398 0.23828 2.8789 0.96094 5.6406 2.0391 8.2812 0.71875 1.6797 1.9219 3.3594 3.2383 4.5586 1.1992 0.96094 2.3984 1.8008 3.8398 2.5195 1.0781 0.35938 2.1602 0.71875 3.3594 1.0781 1.6797 0.23828 3.4805 0.12109 5.1602-0.23828 3.4805-0.60156 6.3594-2.1602 9.2383-4.3203 4.6797-3.4805 8.3984-8.3984 11.879-12.961 2.7617-3.7188 5.3984-7.4414 8.1602-11.16 2.5195-3.4805 5.0391-6.9609 7.8008-10.32 2.7617-3.2383 5.5195-6.2383 8.5195-9.2383 1.9219-1.6797 3.8398-3.3594 6.1211-4.8008 4.9219-2.1602 10.199-3.4805 15.48-4.9219 5.0391-1.3203 9.9609-3 15.121-4.3203-0.23828 1.0781-0.48047 2.0391-0.83984 3.1211-3.4805 10.441-9 20.039-14.16 29.762-2.5195 4.6797-5.3984 9.1211-8.1602 13.559-5.1602 7.6797-10.199 15.359-15.84 22.801-6.1211 8.0391-12.121 16.199-18.238 24.238-11.398 15.48-23.281 30.84-33.48 47.16-5.7617 9.2383-11.398 18.602-16.68 28.199-2.6406 4.6797-5.2812 9.4805-7.8008 14.16-1.0781 2.0391-2.1602 4.1992-3.1211 6.2383-1.9219 4.1992-4.4414 9.4805-2.1602 14.039 1.0781 2.1602 2.2812 3.8398 4.5586 4.9219 2.1602 0.96094 4.6797 1.0781 6.8398 0.23828 2.1602-0.83984 3.9609-2.5195 4.9219-4.5586 0.60156-1.3203 0.96094-3 0.83984-4.5586 1.5586-3.9609 3.7188-7.6797 5.6406-11.281 2.1602-4.0781 4.4414-8.1602 6.7188-12.121 5.0391-9 10.32-17.879 15.719-26.641 4.9219-7.4414 9.9609-14.879 15.238-22.199 5.6406-7.6797 11.281-15.359 16.922-23.039 2.8789-3.9609 5.7617-7.9219 8.7617-11.879 3-3.9609 6.1211-7.9219 9-11.879 6-8.3984 12.121-16.68 17.398-25.441 2.5195-4.0781 5.1602-8.0391 7.4414-12.238 3-5.3984 6-10.922 8.7617-16.441 2.7617-5.5195 5.2812-11.16 7.1992-16.922 0.96094-3.2383 2.0391-6.3594 2.2812-9.7188 0.35938-3.8398 0-8.1602-2.2812-11.398-1.6836-2.3789-4.082-4.5391-6.8438-5.5z"/>
</svg>
