<?xml version="1.0" encoding="UTF-8"?>
<svg width="1200pt" height="1200pt" version="1.1" viewBox="0 0 1200 1200" xmlns="http://www.w3.org/2000/svg">
 <path d="m1015.6 362.16c0-0.12109 0.12109-0.12109 0.12109-0.23828 0.23828-0.83984 0.60156-1.8008 0.83984-2.6406-0.23828 0.95703-0.59766 1.918-0.96094 2.8789z"/>
 <path d="m1079.4 255.84c-0.96094-2.8789-3.1211-5.2812-5.8789-6.6016-0.23828-0.12109-0.48047-0.12109-0.71875-0.23828-1.8008-4.3203-6.1211-7.3203-11.039-7.3203h-0.35938c-5.0391 0.23828-10.199 1.1992-15.238 2.0391-5.5195 0.96094-11.039 1.6797-16.441 2.6406-11.16 1.9219-22.32 3.2383-33.602 4.8008-6.2383 0.83984-12.48 1.5586-18.719 2.3984-5.5195 0.71875-10.922 1.6797-16.32 2.5195-12.359 1.9219-24.719 3.8398-37.199 5.5195-12.48 1.8008-24.961 3.1211-37.441 4.6797-12.602 1.5586-25.078 3.6016-37.68 5.1602-12 1.4414-24 1.8008-35.879 3.2383-12.84 1.5586-25.559 3.6016-38.398 5.3984-12 1.6797-24 2.8789-36 4.9219-10.559 1.8008-21 3.8398-31.441 6.3594-1.8008-1.3203-3.8398-2.0391-6-2.0391-3.4805 0-6.9609 1.4414-9.2383 3.9609-2.0391 2.2812-3 5.3984-2.8789 8.5195 0.23828 3.2383 1.8008 5.7617 3.9609 8.0391 3.7188 3.7188 7.0781 7.6797 10.922 11.16 3.6016 3.2383 7.8008 5.5195 11.879 7.9219 1.8008 1.4414 3.4805 3 5.2812 4.5586 2.2812 2.0391 4.5586 3.7188 6.9609 5.3984-0.23828-0.12109-0.48047-0.35938-0.83984-0.48047 0.48047 0.35938 0.83984 0.71875 1.3203 1.0781-1.6797 0.71875-3.3594 1.4414-5.0391 2.2812-5.7617 2.7617-10.922 6.1211-16.199 9.6016-9.3594 6.3594-19.199 12.121-28.922 17.879-10.32 6.1211-20.16 12.84-30.359 18.961-10.32 6.2383-20.762 12.238-31.078 18.359-10.922 6.3594-21.238 13.441-32.039 19.801-10.32 6.1211-20.879 11.879-31.68 17.281-5.3984 2.7617-10.801 5.5195-16.078 8.3984-5.5195 3.1211-10.922 6.4805-16.32 9.8398-5.0391 3.1211-10.078 6.3594-15.121 9.3594-5.2812 3.1211-10.441 6.1211-15.719 9.2383-10.922 6.3594-21.961 12.359-32.762 18.84-10.32 6.2383-20.281 13.078-30.121 19.922-10.199 7.0781-20.52 13.922-31.199 20.16-5.1602 3.1211-10.441 6-15.602 9.1211-5.0391 3-10.078 6.1211-15 9.2383-10.441 6.4805-20.879 13.32-31.32 19.922-10.559 6.7188-21.359 13.199-31.922 19.922-10.078 6.2383-19.922 12.84-29.762 19.441-9.8398 6.4805-19.801 13.078-29.641 19.559-11.398 7.4414-22.801 15-34.199 22.441-10.801 7.0781-21.602 14.039-32.641 20.641-9.1211 5.2812-18.121 10.801-26.641 17.039-4.3203 3.2383-8.7617 6.3594-13.199 9.6016-4.6797 3.3594-8.8789 6.9609-12.84 11.16-3.6016 3.7188-3.4805 9.7188-0.83984 13.922 0.35938 0.83984 0.48047 1.8008 1.0781 2.5195 8.3984 10.078 17.398 19.68 26.762 28.922 8.1602 8.0391 16.441 15.961 24.48 24.121 17.281 17.398 35.398 33.84 52.32 51.602 7.5586 8.0391 15.359 15.719 23.398 23.16 7.8008 7.1992 15 15 22.68 22.32 3.6016 3.3594 7.1992 6.8398 10.559 10.441 3.2383 3.4805 6.4805 6.8398 9.8398 10.199 6.3594 6.6016 12.961 12.961 19.078 19.68 2.2812 2.6406 4.6797 5.2812 7.0781 7.9219 1.4414 1.6797 2.8789 3.4805 4.4414 4.9219 1.6797 1.5586 3.7188 2.5195 6 2.8789 3.8398 3.7188 10.32 5.1602 14.762 1.6797 19.199-15.48 38.16-31.32 57.84-46.199 9.7188-7.4414 19.68-14.398 29.281-21.961 10.441-8.1602 20.762-16.32 31.078-24.359 39.121-30.48 78.961-60 117.84-90.602 9.7188-7.6797 19.078-15.719 28.441-23.641 9.1211-7.8008 18.48-15.238 27.84-22.559 5.1602-3.9609 10.199-7.9219 15.238-12 4.8008-3.7188 9.8398-7.3203 14.641-11.039 9.8398-7.5586 19.32-15.48 29.039-23.16 9.6016-7.5586 19.68-14.398 29.039-22.078s18.719-15.359 28.078-22.922c9.6016-7.8008 19.559-15 29.398-22.559 9.4805-7.4414 19.32-14.641 28.801-22.199 16.559-13.32 32.641-27.121 49.32-40.32 7.5586-5.8789 14.879-12.121 22.68-17.641 8.1602-5.8789 16.32-11.762 23.762-18.48-0.48047 0.48047-1.0781 0.96094-1.5586 1.4414 2.5195-2.1602 5.0391-4.1992 7.5586-6.3594 0.83984-0.60156 1.5586-1.1992 2.3984-1.6797 2.8789 2.2812 5.8789 4.5586 8.8789 6.7188 4.8008 3.7188 9.6016 7.3203 14.641 10.68-0.83984-0.60156-1.6797-1.0781-2.5195-1.6797 6.3594 4.4414 12.238 9.7188 17.762 14.879 0 3.2383 1.9219 6.4805 4.1992 8.5195l0.35938 0.35938c2.7617 2.6406 8.0391 3.9609 11.52 2.2812 1.3203-0.60156 2.6406-1.0781 3.7188-2.0391 2.5195-2.0391 4.1992-4.1992 4.9219-7.3203 0.23828-1.1992 0.23828-2.3984 0.12109-3.4805 0.71875-1.5586 1.3203-3.2383 2.1602-4.6797 1.0781-2.1602 2.2812-4.4414 3.2383-6.7188 3-6.8398 6.1211-13.559 8.3984-20.762-0.35937 0.96094-0.60156 1.9219-0.96094 2.8789 0.71875-1.9219 1.4414-3.8398 2.0391-5.7617 0 0.12109-0.12109 0.35938-0.12109 0.48047 6.6016-19.199 13.922-38.039 21.359-56.879 3.4805-8.7617 7.0781-17.281 10.32-26.039 1.5586-4.4414 3.2383-8.7617 4.9219-13.199 1.6797-4.6797 3.1211-9.6016 4.6797-14.281-0.12109 0.35938-0.23828 0.60156-0.35938 0.96094 1.0781-3.1211 2.0391-6.2383 3.1211-9.3594 0.23828-0.71875 0.48047-1.4414 0.71875-2.1602 2.1602-5.8789 4.6797-11.641 6.9609-17.398 3.1211-8.1602 6.3594-16.199 9.6016-24.238 7.9219-20.039 15.84-40.199 23.762-60.238 1.1992-3.0156 1.6797-5.8984 0.59766-9.1367zm-45.719 59.879c-3.1211 7.8008-6.2383 15.602-9.2383 23.398-3 7.5586-6.1211 15-8.7617 22.801-1.0781 3-2.0391 6.1211-3 9.1211 0.35937-0.96094 0.60156-1.9219 0.96094-2.8789-1.5586 4.5586-3 9.2383-4.5586 13.801-2.7617 7.6797-5.5195 15.359-8.6406 22.801-3.1211 7.6797-6.3594 15.359-9.3594 23.16-3.6016 9.1211-7.0781 18.121-10.441 27.238-3 8.2812-6.1211 16.559-8.8789 24.961-0.48047 1.3203-0.96094 2.7617-1.4414 4.0781-2.0391 5.6406-4.5586 11.16-7.1992 16.559-5.0391-4.3203-10.078-8.3984-15.602-12 0.83984 0.60156 1.6797 1.0781 2.5195 1.6797-3.8398-2.6406-7.5586-5.6406-11.281-8.5195-4.0781-3.1211-8.1602-6.1211-12.121-9.2383-1.8008-1.4414-4.0781-2.1602-6.3594-2.5195-1.0781-0.60156-2.2812-1.1992-3.4805-1.4414-0.71875-0.12109-1.5586-0.23828-2.2812-0.23828-2.2812-0.23828-4.4414 0.48047-6.6016 1.8008-3.2383 1.8008-6.2383 3.7188-9.1211 6-3.7188 3-7.3203 6.1211-10.801 9.2383 0.35937-0.35938 0.83984-0.71875 1.1992-1.0781-7.8008 6.6016-16.559 12.121-24.602 18.48-8.8789 6.9609-17.641 13.922-26.398 20.879-9.4805 7.5586-18.602 15.602-27.961 23.16-9.3594 7.6797-18.961 15.121-28.68 22.441-9.7188 7.3203-19.199 14.879-28.801 22.078-9.4805 7.0781-18.719 14.762-27.84 22.32-9.7188 8.0391-19.441 15.961-29.641 23.398-9.9609 7.1992-19.441 15-29.039 22.801-9.6016 7.8008-19.559 15-29.398 22.559-9.4805 7.4414-18.961 14.879-28.441 22.441-9.7188 7.9219-19.078 16.199-28.68 24.238-9.6016 7.9219-19.559 15.602-29.398 23.16-19.68 15.121-39.359 30.121-58.922 45.238-19.68 15.121-39.48 30.121-58.922 45.602-8.5195 6.7188-17.039 13.559-25.801 20.039-8.5195 6.3594-17.039 12.48-25.32 19.078-8.3984 6.7188-17.039 13.32-25.441 20.16-6.1211 4.9219-12.238 9.9609-18.48 15-1.6797-1.8008-3.2383-3.6016-4.9219-5.3984-3.1211-3.6016-6.1211-7.1992-9.4805-10.441-3.8398-3.8398-7.5586-7.5586-11.281-11.52-7.5586-8.0391-15.121-16.078-23.16-23.641-8.5195-8.0391-16.441-16.68-25.078-24.602-8.7617-8.0391-17.039-16.559-25.199-25.32-7.1992-7.6797-14.879-15-22.441-22.32-8.3984-8.1602-16.922-16.199-25.199-24.48-7.3203-7.3203-14.762-14.52-22.199-21.719-7.0781-6.9609-13.922-14.16-20.762-21.359 2.7617-2.0391 5.6406-4.0781 8.5195-6.1211 4.9219-3.4805 9.7188-7.1992 14.762-10.441 10.441-6.7188 21.359-12.719 31.922-19.32 9.9609-6.2383 19.559-12.719 29.281-19.199 11.281-7.4414 22.559-14.879 33.84-22.32 21.238-13.922 42.48-28.078 64.078-41.52 9.9609-6.2383 19.922-12.359 29.762-18.84 10.32-6.7188 20.762-13.441 31.441-19.559 10.801-6.2383 21.48-12.48 32.039-19.199s20.762-14.039 31.078-21.121c9.9609-6.7188 20.398-12.84 30.84-18.84s21-12 31.441-18c14.641-8.5195 28.68-18.121 43.801-25.922 10.441-5.1602 20.879-10.559 30.961-16.441 5.5195-3.1211 10.922-6.6016 16.32-9.9609 4.8008-3 9.7188-5.8789 14.641-9 9.8398-6.1211 19.801-11.762 29.641-17.641 10.559-6.3594 21-12.961 31.32-19.559 8.2812-5.2812 16.801-10.078 25.199-15.238 4.0781-2.5195 8.1602-5.1602 12.238-7.9219 3.8398-2.5195 7.5586-5.0391 11.641-7.1992 0.35938-0.23828 0.83984-0.35937 1.1992-0.60156-0.23828 0.12109-0.35938 0.23828-0.60156 0.23828 3.4805-1.6797 7.0781-3.1211 10.559-4.8008 2.5195-1.1992 5.0391-2.6406 7.4414-3.9609 1.0781-0.35937 2.1602-0.71875 3.3594-1.0781 6.1211-1.6797 9.1211-9.2383 7.1992-14.879-0.71875-2.1602-2.0391-3.7188-3.6016-5.0391-1.5586-2.3984-3.9609-4.3203-6.8398-5.1602-0.96094-0.96094-1.9219-1.9219-2.8789-2.7617-2.1602-2.0391-4.5586-3.7188-6.9609-5.3984 0.12109 0.12109 0.23828 0.12109 0.35938 0.23828-2.8789-2.0391-5.3984-4.4414-8.1602-6.8398-1.1992-1.0781-2.6406-2.0391-3.9609-3 22.078-3.8398 44.398-6.3594 66.48-9.7188 12.359-1.9219 24.719-3.1211 37.199-4.1992 6-0.48047 12-0.83984 18-1.5586 6.2383-0.71875 12.48-1.6797 18.719-2.5195 24.84-3.4805 49.68-6.2383 74.398-9.9609 11.641-1.8008 23.398-3.8398 35.039-5.3984 11.879-1.5586 23.879-2.8789 35.762-4.5586 8.2812-1.1992 16.68-2.7617 24.961-3.9609 4.3203-0.60156 8.7617-1.4414 13.078-2.1602-6.457 16.445-12.938 33.008-19.539 49.445z"/>
</svg>
