<?xml version="1.0" encoding="UTF-8"?>
<svg width="1200pt" height="1200pt" version="1.1" viewBox="0 0 1200 1200" xmlns="http://www.w3.org/2000/svg">
 <path d="m576 250.69c2.3906 0.75 3.7031 3.2344 3 5.625-1.125 4.5938-4.2656 8.4375-8.5312 10.453-1.9688 0.84375-4.0781 1.3125-6.2344 1.3125-2.8594 0-5.6719-0.60938-8.2969-1.7812-1.0781-0.51562-1.9219-1.4062-2.3438-2.5781-0.375-1.125-0.32812-2.3438 0.1875-3.4219 1.125-2.2031 3.75-3.1406 6-2.1562 2.2969 0.79688 4.8281 0.79688 7.0781 0 1.875-1.0312 3.1406-2.8594 3.5156-4.9219 0.9375-2.2031 3.375-3.2812 5.625-2.5312zm338.76 855.24v1.4531c0.60938 6-1.8281 11.953-6.4688 15.844-3.375 2.8125-7.6406 4.4062-12 4.4062-1.5469 0.23438-3.1406 0.23438-4.6875 0l-177.84-45.703c-7.875-1.9688-14.203-7.7344-16.828-15.375-2.6719-7.6406-1.3125-16.125 3.6094-22.547l32.297-39.375v-30.844l-9.8438 3.6094h-1.5469c-1.2656 0.046874-2.4844-0.46875-3.3281-1.3594-0.84375-0.9375-1.2656-2.2031-1.125-3.4219 2.625-33.938 8.3906-102.38 15.703-168.61l-284.16 184.45c-1.1719 0.70312-2.5781 0.89062-3.8906 0.46875-1.3125-0.46875-2.3438-1.4531-2.8125-2.7656l-69.844-200.53-304.55 268.6c-0.84375 0.70313-1.9219 1.0781-3 1.0781-1.125-0.046876-2.1562-0.42188-3-1.0781-1.5-1.7344-1.5-4.3125 0-6l388.4-556.22c0.98438-1.4531 2.7656-2.1562 4.4531-1.7812 1.7344 0.23438 3.1875 1.5 3.6094 3.2344l48 181.31c-3.8438-39.141-16.922-169.31-24-231.61-3.3281-30.844-4.3594-61.875-3.1406-92.859 0.89062-24.75 20.438-44.766 45.141-46.219l12-0.60938v-0.60938l-1.0781-29.859c-1.6406-0.1875-3.2344-0.46875-4.7812-0.84375h-3.75c-7.5469 0.046875-14.859-2.6719-20.531-7.6875-11.062-9.9375-15.703-28.219-13.781-54.375l-7.9219-1.4531v0.046875c-1.5-0.1875-2.8125-1.2188-3.375-2.625-0.70312-1.3125-0.70312-2.9062 0-4.2188 1.6875-2.5312 40.547-60 92.297-43.219 17.391 5.5312 27.609 13.781 30.609 24.703v0.046875c1.875 10.359-1.0312 21.047-7.9219 29.016 1.0781 9.3281 1.5469 18.703 1.3125 28.078-0.14063 2.4375-2.1094 4.3125-4.5469 4.3125-1.2188 0-2.3438-0.46875-3.1875-1.3125-0.84375-0.89062-1.3125-2.0156-1.2656-3.2344 0.46875-8.0625 0.46875-16.172 0-24.234-14.625 1.8281-29.484-0.5625-42.844-6.8438-1.0781 11.859-4.5 23.438-10.078 33.984-0.75 1.4062-2.25 2.2969-3.8438 2.25-0.9375 0-6.375 0.9375-7.0781 10.547-0.1875 1.8281 0.375 3.6094 1.5469 4.9219 4.125 3 9.0938 4.5 14.156 4.3594 2.4844 0 4.5 1.9688 4.5938 4.4062l1.3125 37.078 25.781 25.922 3.1406-30.609v0.046875c-0.14063-0.5625-0.14063-1.1719 0-1.6875l-2.2969-12.375h-1.2188 0.046876c-2.6719 0-5.3438-0.375-7.9219-1.0781-2.2031-0.84375-3.4219-3.1875-2.8125-5.4844 0.60938-2.25 2.8594-3.7031 5.2031-3.2812 3.9375 1.5 8.2969 1.1719 12-0.84375 5.3906-4.4062 8.8125-10.734 9.6094-17.625 0.46875-2.4375 2.8594-3.9844 5.25-3.4688 2.4375 0.46875 3.9844 2.8594 3.5156 5.25-1.0781 9.5625-6.0469 18.234-13.688 24h-1.0781l3 12c17.531 0 98.062-1.9219 136.31-35.156 1.1719-0.9375 2.7188-1.3125 4.1719-0.9375 1.4062 0.375 2.5312 1.4062 3 2.7656 40.453-20.391 133.22-72 144-101.53 0-6.4688 4.6875-42 22.547-50.531h0.046875c7.7344-5.4844 14.25-12.422 19.172-20.531 7.2188-9.8438 13.453-18.234 20.531-19.312 2.6719-0.375 5.3906 0.28125 7.5469 1.9219 2.2969 1.7344 3.7031 4.3594 3.8438 7.2188 0.70312 10.922-14.859 29.156-24 38.859 9.375 2.25 17.438 8.1094 22.453 16.312 3.375 8.625 1.9688 18.375-3.7031 25.688-16.547 26.766-31.922 31.219-37.688 31.922-12.703 13.922-108 117.23-156 125.63l1.5469 4.6875c0.5625 1.5469 0.23438 3.2344-0.84375 4.4531-2.0625 2.3906-49.078 54.609-88.547 58.688 1.3594 6.9375 2.2031 14.016 2.5312 21.094 0 20.062 8.0625 69.141 10.078 81.469 48 12 101.16 23.297 112.45 20.859l-0.046875 0.046875c8.4844-2.7656 16.359-7.125 23.156-12.844 11.438-10.875 26.625-16.828 42.375-16.547 3.1406 0 12 1.5469 12 7.6875 0 1.5469 0 5.3906-8.2969 10.781 7.1719 0.5625 13.969 3.5156 19.219 8.3906 3.2812 3.8438 4.5 9.0469 3.2344 13.922-3.7031 14.438-13.594 26.531-27 33-12.234 6-26.625 6-38.859 0-14.766-7.2188-80.062-6.9375-132-6.7031h-1.5938c-0.23438 0.32812-0.5625 0.5625-0.9375 0.70312 0 0-49.922 21.375-60 91.312-1.6406 18.281-11.578 34.734-26.859 44.766-12.141 6.9375-25.922 10.406-39.844 9.9844-12.469-0.09375-24.844-1.9688-36.75-5.5312l2.1562 8.1562c6.3281 24 30.328 38.859 54.609 33.844l181.22-44.625c5.1562-27.844 10.453-46.922 15.703-49.688 2.25-1.0781 4.9219-0.23438 6.1406 1.9219 1.0312 2.25 0.14062 4.9219-2.0625 6.0938-11.297 9.8438-29.859 171.14-42 320.39l111.14-40.781 16.922-297.84c0.89062-19.172-13.406-35.719-32.531-37.547l-150.84-13.922c-2.4844-0.23438-4.3125-2.4375-4.0781-4.9219 0.09375-1.2188 0.65625-2.2969 1.5938-3.0938 0.9375-0.75 2.1094-1.125 3.3281-0.98438l150.61 13.688c24 2.0156 42 22.875 40.547 46.922l-16.688 300.84c-0.14062 1.7812-1.3125 3.3281-3 3.9375l-28.312 10.312v63.469c3.1406 7.4531 30 66.844 84 83.156v0.046875c7.9219 1.8281 13.828 8.4375 14.766 16.547zm-283.08-616.22c-0.70312-0.23438-1.3594-0.60938-1.9219-1.0781l-27.844-26.156-32.391 24.609 18.469 33.609c6.375 11.578 18.375 18.891 31.547 19.312h57.234c56.062 0 120 0 136.31 7.5469h0.046874c9.75 4.9688 21.281 4.9688 31.078 0 10.922-5.25 19.031-15.047 22.172-26.766 0.70313-2.0625 0.1875-4.3594-1.3125-6-5.625-6.6094-24.844-6.6094-31.219-6.1406v0.046875c-2.2031 0.09375-4.1719-1.4062-4.6406-3.6094-0.51563-2.2031 0.75-4.4062 2.8594-5.1562 6.3281-2.2031 12.422-5.1094 18.141-8.625h-2.4375c-13.406 0.28125-26.25 5.5781-36 14.859-7.7812 6.5156-16.781 11.438-26.484 14.531-20.672 3.9375-140.06-27.375-153.61-30.984zm98.766-216.71 13.547 39c45.938-6.1406 152.53-123.37 153.61-124.55 0.9375-1.0781 2.2969-1.5938 3.7031-1.4531 0 0 14.625 0 31.781-27.844h0.046875c4.0312-4.875 5.1094-11.578 2.8594-17.531-3.9375-8.5312-18.469-12-24-13.078-1.6875-0.28125-3.0938-1.4531-3.6094-3.0938-0.5625-1.5938-0.14062-3.375 1.0781-4.5938 12-12 27.609-30.469 27.141-37.547l-0.60938-0.9375c-3.375 0-9.6094 9-14.531 15.703-5.9062 9.2812-13.828 17.109-23.156 22.922-12 5.625-16.547 33.469-17.391 43.688v1.2188c-13.219 37.406-128.39 96.938-150.47 108.09zm-150.61 67.312 9.375 9.375 4.3125-43.078h-10.312zm-45.938-27.375 35.156 44.391 1.4531-13.688-30.516-31.031zm-17.906 369.74c9.7031 2.5312 43.219 9.8438 66.141-4.4531 13.078-8.625 21.469-22.781 22.781-38.391 4.0312-36.234 23.109-69.141 52.547-90.609h-38.062 0.046874c-16.359-0.46875-31.219-9.6094-39-24l-18-32.391-7.9219 6c-0.79688 0.5625-1.7812 0.84375-2.7656 0.84375h-0.98437c-1.2656-0.1875-2.3906-1.0312-3-2.1562l-49.688-87.609h0.046874c-0.98437-2.1562-0.14062-4.6875 1.9219-5.8125 2.0625-1.1719 4.6406-0.5625 6 1.3594l47.062 83.156 53.531-40.547-41.062-55.078h-0.046876c-0.9375-0.9375-1.4531-2.25-1.3594-3.5625 0.046874-1.3594 0.70312-2.5781 1.7812-3.375 1.0781-0.79688 2.4375-1.0781 3.75-0.79688s2.4375 1.125 3.0469 2.3438l43.688 58.688c1.4062 1.9688 1.0312 4.6875-0.84375 6.2344l-6.375 4.7812 25.922 24 26.391 6.8438c-2.625-16.781-9.2344-60-9.6094-79.078-3-25.219-8.3438-50.156-15.938-74.391-0.32813-1.125-0.1875-2.3438 0.375-3.375s1.5-1.8281 2.625-2.1562c1.125-0.375 2.3438-0.28125 3.4219 0.28125 1.0781 0.51562 1.875 1.4531 2.2031 2.625 0 1.4531 7.4531 24 12 47.062 32.156-2.625 72.938-44.391 81.844-54l-17.297-51.609c-33.469 24.938-88.078 31.312-118.55 32.766l-5.3906 53.719c-0.1875 1.7344-1.3594 3.1875-3 3.7031-0.51562 0.14063-1.0312 0.14063-1.5469 0-1.1719 0-2.2969-0.46875-3.1406-1.3125l-10.922-10.922-1.6875 17.531c-0.23438 1.7812-1.5 3.2812-3.2344 3.8438h-1.2188 0.046876c-1.4062 0.046874-2.7656-0.60938-3.6094-1.6875l-45.844-57.844c-19.359 1.875-34.359 17.766-35.016 37.219-1.2656 30.516-0.23438 61.078 3.0938 91.406 7.5469 68.672 22.453 218.06 24.844 240.74zm218.86 109.31c3.9375-34.781 8.2969-68.297 12.938-95.297l-177.42 43.688c-29.203 6.7969-58.5-10.688-66.375-39.609l-52.312-195.32-361.92 517.08 281.53-248.06c1.0781-1.0781 2.7188-1.4062 4.1719-0.9375 1.4531 0.375 2.625 1.4531 3.1406 2.8594l69.844 201.37zm7.4531 211.22c20.391 10.266 44.391 10.641 65.062 0.9375v-58.219l-64.688 24zm163.69 104.86v-1.4531c-0.51563-4.125-3.5156-7.5469-7.5469-8.625-6.3281-1.9219-12.516-4.4062-18.375-7.4531-6.1406 0-12 0.70312-18.234 0.70312v0.046875c-54.234-1.7344-107.44-15.141-156-39.375-1.9219 3.7031-2.1562 8.0625-0.70313 12 1.6406 4.9219 5.625 8.6719 10.641 9.9375l178.08 44.531c3.0469 0.75 6.2812 0 8.6719-2.0156 2.4844-2.0156 3.75-5.1094 3.4688-8.2969zm232.69-137.29c-2.0156 5.2031-6.5625 9-12 10.078l-157.55 37.219c-1.6875 0.23438-3.375 0.23438-5.0625 0-5.7188 0-11.156-2.25-15.234-6.2344-5.0625-4.9688-7.3594-12.094-6.1406-19.078v-0.375l9.1406-43.781-14.766-29.156c-0.5625-1.0781-0.60938-2.3438-0.23438-3.5156 0.375-1.125 1.1719-2.0625 2.2969-2.625 1.0312-0.51562 2.2969-0.60938 3.4219-0.23438s2.0625 1.2188 2.5781 2.2969l14.859 28.312c19.688-0.375 38.203-9.6562 50.297-25.219l-26.297-50.156-71.156 43.688c-0.70312 0.46875-1.5469 0.70312-2.3906 0.70312-0.51562 0.14062-1.0781 0.14062-1.5938 0-1.3125-0.51562-2.3438-1.5938-2.7188-3l-39.375-142.92c-0.32812-1.125-0.1875-2.3438 0.375-3.375 0.60938-1.0781 1.5938-1.8281 2.7188-2.1094 1.1719-0.32812 2.3906-0.1875 3.4219 0.375 1.0312 0.60938 1.8281 1.5938 2.1094 2.7188l37.828 136.55 76.922-48-25.594-102.94-10.547-20.391-21.844-42.375c-1.1719-2.2969-3.2344-4.0312-5.7656-4.6875-2.5312-0.60938-5.25-0.14062-7.4531 1.3125l-45.375 30h0.046875c-2.0625 0.9375-4.5 0.23438-5.7188-1.6406s-0.89062-4.4062 0.79688-5.9062l45.375-30c4.2656-2.8594 9.6094-3.75 14.625-2.3906 5.1562 1.125 9.5625 4.4531 12 9.1406l21.938 42.375c13.219 25.547 28.688 55.688 36 70.781 28.781-100.92 92.156-324 101.53-360l-309.84-25.594 34.312 58.453c1.2656 2.1094 0.5625 4.875-1.5469 6.1406-2.1094 1.2188-4.875 0.5625-6.1406-1.5938l-38.859-65.625c-0.84375-1.4531-0.84375-3.2344 0-4.6875 0.89062-1.4531 2.5312-2.25 4.2188-2.0156l324 27.141v-0.046875c1.2188 0.09375 2.3906 0.75 3.0938 1.8281 0.75 0.98438 1.125 2.2031 0.98438 3.4688-1.7812 11.062-101.77 361.22-106.08 376.08-0.51562 1.6875-1.875 2.9531-3.6094 3.2344h-0.75c-1.5 0-2.9062-0.75-3.7031-2.0625 0-0.70312-4.4531-8.2969-13.688-26.156l17.297 69.609c0.42188 1.9219-0.42188 3.8906-2.0625 4.9219l-6.7031 4.2188c0.42188 0.28125 0.75 0.65625 0.98438 1.0781l27 51.938c5.8594 4.7812 50.766 39.703 99.609 30.469l-0.046875 0.046875c7.0312-1.5469 14.203 1.4062 18.141 7.4062l0.70312 1.0781c2.8125 4.5938 3.2812 10.266 1.2188 15.234zm-185.76 18c46.359-1.3125 91.922-12.422 133.69-32.625-25.828-4.1719-50.203-14.812-70.828-30.938-13.547 16.641-33.609 26.672-55.078 27.469zm176.86-28.781-0.70312-1.0781c-1.9688-2.8594-5.5312-4.1719-8.8594-3.375-5.7188 1.0312-11.484 1.5938-17.297 1.5938-59.062 36-132.94 40.312-151.31 40.688v-0.046875c0.23438 3.1406 1.5938 6.0938 3.8438 8.2969 3.0938 3.2344 7.6875 4.5 12 3.2344l157.31-37.312c2.5312-0.51562 4.6406-2.2969 5.625-4.6875 0.9375-2.3906 0.70312-5.1094-0.60938-7.3125z"/>
</svg>
