<?xml version="1.0" encoding="UTF-8"?>
<svg width="1200pt" height="1200pt" version="1.1" viewBox="0 0 1200 1200" xmlns="http://www.w3.org/2000/svg">
 <path d="m978.24 797.76c2.0391-2.1602 3.8398-4.5586 5.6406-6.9609 2.0391-2.7617 3.8398-5.8789 5.7617-8.7617 2.1602-3.2383 3.9609-6.7188 5.5195-10.32 1.3203-3.3594 2.3984-6.8398 3.4805-10.441 1.0781-3.8398 2.5195-7.5586 3.2383-11.52 1.3203-6.6016 1.1992-13.559 1.1992-20.281 0-2.3984 0-4.6797-0.23828-7.0781-0.23828-2.6406-0.83984-5.2812-1.3203-7.8008-0.83984-4.3203-1.3203-8.7617-2.2812-12.961-0.83984-3.7188-2.1602-7.3203-3.8398-10.801 0.96094-0.12109 2.0391-0.12109 3-0.35938 5.6406-0.96094 11.52-2.2812 17.039-3.8398 4.0781-1.1992 7.6797-2.8789 11.52-4.5586 3.9609-1.6797 8.2812-2.7617 12.238-4.3203 5.5195-2.1602 10.199-6.3594 14.641-10.199 3.8398-3.3594 6.8398-7.3203 10.199-11.16 1.5586-1.6797 3.1211-3.3594 4.3203-5.3984 2.3984-3.8398 3.8398-7.5586 4.8008-12 1.1992-5.1602 1.5586-10.559 2.2812-15.84 1.1992-9.2383 1.6797-18.359 1.6797-27.719 0-4.5586 0-9-0.48047-13.68-0.48047-5.2812-1.8008-10.559-3.2383-15.719-2.2812-8.1602-4.0781-16.801-8.2812-24.238-4.9219-8.6406-10.68-16.68-16.559-24.719-1.4414-1.9219-2.8789-3.8398-4.4414-5.6406 3-1.4414 6-3.1211 8.5195-5.2812 2.3984-2.0391 4.6797-4.1992 6.9609-6.3594 3.8398-3.7188 7.6797-7.4414 11.762-10.801 4.9219-4.0781 10.32-7.4414 14.641-12.121 4.5586-4.8008 7.0781-10.922 9.9609-16.68 1.0781-2.1602 2.1602-4.3203 3.3594-6.3594 1.9219-3.7188 3.3594-7.3203 4.4414-11.281 1.5586-5.5195 1.9219-11.16 2.3984-16.922 0.48047-5.8789 1.3203-11.641 1.9219-17.52 0.23828-3.3594 0.23828-6.8398 0.23828-10.199 0-3.1211 0-6.2383-0.35937-9.3594-0.71875-6-1.6797-11.879-2.7617-17.879-1.3203-7.3203-2.3984-14.762-4.3203-21.961-0.83984-3.1211-2.7617-6.1211-4.1992-9-1.5586-3-3.2383-5.8789-4.9219-8.8789-3.2383-5.6406-6.8398-11.16-10.559-16.559-1.8008-2.5195-3.4805-5.1602-5.2812-7.6797-2.5195-3.2383-5.1602-6.1211-8.0391-8.8789-4.6797-4.5586-10.32-8.2812-15.961-11.641-3.4805-2.0391-6.9609-4.0781-10.801-5.3984-2.8789-1.0781-5.7617-2.0391-8.6406-3-5.2812-1.9219-10.441-4.0781-15.602-6.1211-5.0391-1.9219-9.9609-3.6016-15.121-5.0391-1.6797-0.48047-3.4805-0.60156-5.2812-0.60156-3.2383-0.35938-6.4805 0.23828-9.4805 0.83984-5.2812 1.0781-10.559 2.1602-15.84 3.2383-5.6406 1.0781-11.52 1.8008-17.039 3.2383-6 1.5586-11.879 3.4805-17.762 5.3984-5.3984 1.8008-10.801 3.7188-15.961 6-10.32 4.6797-19.801 10.801-28.32 18.238-0.35937-2.0391-0.60156-3.9609-0.96094-6-1.0781-6.3594-2.5195-12.602-4.1992-18.84-1.5586-5.3984-3.8398-10.68-6-15.84-2.2812-5.5195-4.5586-11.039-7.0781-16.441-2.6406-5.7617-6.1211-11.039-9.3594-16.441-2.8789-4.8008-5.7617-9.4805-8.8789-14.16-3.2383-4.8008-6.6016-9.3594-9.9609-14.039-1.9219-2.6406-3.8398-5.1602-5.8789-7.5586-3.3594-3.9609-7.3203-7.3203-11.281-10.559-6.1211-4.9219-12.602-9.2383-19.32-13.199 0.12109 0.12109 0.23828 0.12109 0.48047 0.23828-5.0391-3-10.199-5.8789-15.719-7.8008-6.1211-2.2812-12.48-4.0781-18.84-5.5195-5.7617-1.3203-11.762-2.1602-17.641-3-5.7617-0.83984-11.52-1.8008-17.398-2.1602-1.6797-0.12109-3.3594-0.12109-5.0391-0.12109-4.0781 0.12109-8.0391 0.35938-11.879 0.48047-5.7617 0.23828-11.641 0.23828-17.398 0.35938-11.039 0.35938-21.961 3.1211-32.641 5.8789-3.8398 0.96094-7.6797 1.9219-11.281 3.6016-3 1.3203-5.7617 3.1211-8.6406 4.8008-6.9609 3.7188-14.16 6.7188-21.121 10.441-7.9219 4.1992-14.641 9.8398-22.078 14.762-4.0781 2.7617-7.6797 5.7617-11.039 9.2383-2.8789 2.8789-5.0391 6.4805-7.3203 9.8398-2.6406 3.7188-5.3984 7.3203-7.5586 11.398-0.83984 1.4414-1.5586 3-2.3984 4.5586-0.12109-0.23828-0.35938-0.35938-0.48047-0.60156-4.4414-4.9219-9.3594-9.3594-14.281-13.922-4.0781-3.7188-8.3984-7.0781-13.078-9.9609-5.1602-3.2383-10.559-5.8789-16.078-8.5195-11.039-5.1602-22.32-9.9609-34.199-12.961-9.4805-2.3984-19.559-4.4414-29.52-4.4414-1.0781 0.23828-2.3984 0.23828-3.7188 0.35938-7.8008 0.48047-15.359 2.7617-22.922 4.8008-4.1992 0.96094-8.2812 1.8008-12.48 2.8789-5.5195 1.4414-10.801 3.2383-15.84 5.8789-10.68 5.7617-21.84 12.84-28.559 23.16-3.4805 5.2812-6.3594 11.039-9.2383 16.68-2.0391 4.1992-3.6016 8.5195-5.0391 12.84-4.6797-5.5195-9.8398-10.68-15-15.719-4.1992-4.5586-8.2812-9.2383-12.719-13.559-3.8398-3.7188-7.9219-7.3203-12.121-10.559-5.0391-3.8398-10.559-6.9609-16.078-9.9609-4.5586-2.5195-9.2383-4.6797-14.039-6.8398-9.3594-4.0781-19.441-6.3594-29.281-8.8789-6.8398-1.6797-13.68-3.4805-20.52-5.1602-5.2812-1.3203-10.32-2.5195-15.719-2.5195-0.83984-0.12109-1.5586 0-2.2812 0-4.5586 0.23828-9.2383 1.6797-13.68 2.6406-6.1211 1.3203-12.238 2.6406-18.238 4.3203-6.7188 2.0391-12.719 5.7617-18.602 9.6016-10.199 6.7188-18.84 15.359-27.238 24.121-3.7188 3.8398-6.9609 8.0391-9.9609 12.359-3.8398 5.6406-7.6797 11.281-11.16 17.16-3 5.1602-5.3984 10.441-7.1992 16.199-2.0391 6.2383-3.8398 12.48-5.1602 18.84-1.0781 5.7617-0.83984 11.879-0.35938 17.762 0.35938 5.1602 0.83984 10.32 1.4414 15.48 0.71875 6.8398 2.5195 13.32 4.5586 19.68 1.6797 5.1602 3.8398 10.199 5.2812 15.48 1.5586 5.3984 3.4805 10.441 5.8789 15.48 2.5195 5.3984 5.5195 10.68 8.0391 16.078 2.2812 4.9219 4.3203 10.078 6.6016 15 2.6406 5.7617 6.1211 11.16 9.3594 16.559 0.23828 0.48047 0.60156 0.96094 0.83984 1.4414 3.3594 6.3594 6.6016 12.719 10.32 18.84-0.96094 0.12109-1.8008 0.12109-2.7617 0.12109-6.7188 0.23828-13.68 2.3984-20.16 4.1992-3.1211 0.83984-6.2383 1.9219-9 3.4805-3 1.6797-5.7617 3.7188-8.6406 5.5195-4.3203 2.2812-9 3.9609-13.441 6.2383-5.5195 2.7617-10.559 6.2383-15.48 9.7188-5.1602 3.7188-9.9609 8.3984-14.398 12.961-4.3203 4.3203-8.7617 8.6406-12.602 13.441-3.9609 4.9219-7.3203 10.441-9.2383 16.441-1.4492 4.3242-2.5273 8.6445-2.8906 13.082-0.35938 2.7617-0.48047 5.6406-0.71875 8.5195-0.60156 6.3594-0.96094 12.719-0.35938 19.078 0.60156 5.5195 1.6797 10.922 2.6406 16.32 0.71875 3.9609 1.1992 7.9219 1.9219 11.762 0.96094 5.2812 2.3984 10.441 3.8398 15.602 1.3203 4.3203 2.5195 8.5195 3.9609 12.84 2.0391 6.2383 4.5586 12.121 8.2812 17.641 5.1602 7.9219 10.801 15.359 16.32 22.922 2.7617 3.7188 5.3984 7.4414 8.1602 11.039 2.6406 3.4805 5.6406 6.7188 8.7617 9.8398 0.60156 0.71875 1.1992 1.4414 2.0391 2.0391 8.1602 8.2812 17.16 15.84 26.879 22.32 9.9609 6.4805 21 11.039 32.398 14.52 11.879 3.6016 24.121 5.5195 36.48 6.3594 9.4805 0.71875 18.719 0.12109 28.078-0.71875-0.71875 2.0391-1.5586 4.0781-2.1602 6.2383-1.4414 5.1602-2.3984 10.559-2.7617 15.961-0.48047 6.3594-0.12109 13.078 0.35938 19.441 1.4414 23.762 15 46.801 34.68 59.879 3.6016 2.3984 7.1992 4.6797 10.801 6.8398 4.4414 2.7617 9 4.9219 13.922 6.8398 4.6797 1.8008 9.6016 3.3594 14.52 4.4414 5.5195 1.3203 11.16 0.96094 16.801 0.71875 4.1992-0.12109 8.3984-0.23828 12.48-0.96094 4.8008-0.71875 9.6016-2.1602 14.039-4.3203 4.3203-2.0391 8.6406-4.1992 13.078-6 1.8008-0.60156 3.6016-1.3203 5.3984-2.0391 2.2812 3.9609 4.5586 7.8008 7.0781 11.641 1.0781 1.6797 2.0391 3.4805 3.3594 5.0391 1.8008 2.1602 3.8398 4.0781 5.8789 6.1211 7.9219 7.6797 17.281 13.559 26.762 19.078-0.60156-0.35937-1.1992-0.71875-1.8008-1.0781 2.6406 1.5586 5.1602 3.2383 7.8008 4.8008-0.35937-0.23828-0.60156-0.35938-0.96094-0.60156 5.2812 3.1211 10.441 6.3594 15.961 9.1211 4.6797 2.2812 9.4805 4.1992 14.398 5.8789 11.52 3.9609 23.641 5.5195 35.641 6.6016 5.5195 0.48047 11.039 0.83984 16.559 1.3203 6.6016 0.48047 13.199 0.71875 19.801-0.12109 4.5586-0.60156 9.2383-1.4414 13.801-2.2812 7.0781-1.3203 14.52-2.6406 20.762-6 5.3984-2.8789 10.199-6.8398 15.359-10.078 3.8398-2.0391 7.9219-3.8398 11.52-6.1211 5.0391-3.2383 9.3594-7.4414 12.719-12.359 2.2812-3.4805 4.5586-7.0781 6.9609-10.559 2.7617-3.8398 5.8789-7.3203 8.5195-11.16 4.8008-6.8398 8.1602-15 10.559-23.16 3.2383 4.1992 6.8398 8.1602 10.922 11.641 5.2812 4.5586 9.9609 9.8398 15.359 14.281 6.9609 5.8789 14.879 10.441 23.039 14.398 6.9609 3.3594 14.641 5.6406 22.32 6.9609 7.5586 1.3203 15.359 2.1602 23.039 2.2812 8.0391 0.23828 16.559-0.12109 24.48-1.6797 3.9609-0.83984 7.9219-2.0391 11.641-3.6016 2.7617-1.1992 5.6406-2.2812 8.6406-3.1211h-0.23828c4.5586-1.1992 9-2.7617 12.84-5.8789 2.6406-2.1602 4.5586-4.9219 6.7188-7.4414 0.96094-0.83984 2.0391-1.4414 3-2.2812 3.7188-2.5195 6.4805-5.7617 8.3984-9.8398 2.0391-4.3203 3.1211-9.1211 5.2812-13.32 1.9219-3.6016 3.7188-7.1992 5.1602-11.039v-0.12109c0.71875 0.83984 1.4414 1.5586 2.1602 2.3984 3.9609 4.8008 8.0391 9.9609 12.84 13.922 2.8789 2.3984 6 4.4414 9.1211 6.7188 3.4805 2.5195 7.3203 4.5586 11.16 6.4805 3.4805 1.6797 6.9609 3.4805 10.559 5.0391 5.6406 2.5195 11.52 4.3203 17.52 5.1602 3.7188 0.48047 7.4414 0.60156 11.039 0.71875 5.1602 0.23828 10.199 0.83984 15.359 0.83984 8.7617 0 17.641-0.60156 26.281-1.4414 3.6016-0.35938 7.1992-1.0781 10.801-1.8008 4.1992-0.83984 8.6406-1.8008 12.719-3.3594 8.2812-3.2383 13.922-10.32 19.922-16.559 2.4023-2.2773 4.8047-4.4375 7.082-6.8359zm-180.48-606.84c0.12109 0.12109 0.23828 0.12109 0.35938 0.23828-0.71875-0.35938-1.4414-0.83984-2.0391-1.1992 0.47656 0.35937 1.0781 0.71875 1.6797 0.96094zm161.4 592.08c-2.3984 2.2812-4.9219 4.5586-7.3203 6.9609-1.9219 1.9219-3.8398 4.0781-5.7617 6-0.96094 0.83984-1.9219 1.6797-3 2.3984-1.3203 0.60156-2.6406 1.0781-4.0781 1.4414-5.5195 1.3203-11.281 2.3984-17.039 2.8789-7.1992 0.48047-14.281 1.0781-21.48 1.1992-4.6797-0.12109-9.3594-0.71875-14.039-0.83984-4.4414-0.12109-8.7617-0.60156-12.961-1.5586-4.4414-1.4414-8.6406-3.2383-12.84-5.3984-2.8789-1.4414-5.7617-2.7617-8.5195-4.3203-2.3984-1.5586-4.5586-3.2383-6.8398-4.9219-1.8008-1.3203-3.6016-2.6406-5.2812-4.0781-2.7617-3.1211-5.3984-6.4805-8.1602-9.6016-2.0391-2.2812-4.0781-4.5586-6.1211-6.8398-2.6406-2.8789-5.2812-5.6406-7.6797-8.5195-4.1992-5.0391-11.398-6.3594-16.801-2.2812-1.1992 0.83984-2.1602 2.0391-2.8789 3.3594-0.23828 0.12109-0.60156 0.23828-0.83984 0.35938-2.7617 2.1602-3.8398 4.6797-4.6797 7.9219-0.23828 1.0781-0.60156 2.1602-0.83984 3.2383-1.5586 4.9219-3.4805 9.8398-5.8789 14.52-1.4414 2.7617-2.8789 5.3984-3.9609 8.2812-0.96094 2.5195-1.6797 5.1602-2.8789 7.5586-1.6797 1.3203-3.6016 2.5195-5.1602 3.9609-2.2812 2.1602-4.0781 4.5586-6.1211 6.8398-0.12109 0.12109-0.35938 0.23828-0.48047 0.35938-1.5586 0.71875-3.1211 1.1992-4.8008 1.6797 0.83984-0.23828 1.6797-0.48047 2.5195-0.60156-3.4805 0.96094-6.9609 1.8008-10.32 3.1211-2.3984 0.83984-4.6797 2.0391-7.0781 2.8789-3.2383 0.60156-6.3594 0.96094-9.6016 1.3203-3.1211 0.35938-6.2383 0.60156-9.4805 0.71875-4.9219-0.12109-9.8398-0.60156-14.762-1.1992-4.5586-0.48047-9-1.0781-13.441-2.1602-6.4805-2.0391-12.602-4.8008-18.602-8.1602-5.2812-3.3594-10.199-7.1992-14.641-11.641-2.3984-2.3984-4.8008-4.6797-7.3203-6.9609-1.9219-1.8008-4.0781-3.4805-6-5.2812-4.3203-4.9219-7.9219-10.32-11.281-15.84-1.8008-3.1211-3.2383-6.2383-4.4414-9.7188-0.96094-2.7617-3.1211-4.8008-5.7617-6-0.60156-1.1992-1.4414-2.2812-2.6406-3.2383-2.1602-1.6797-4.8008-2.6406-7.4414-2.6406-0.23828-0.12109-0.83984 0-1.3203 0-3.1211 0.35938-6 2.0391-7.9219 4.4414-1.8008 2.2812-3.2383 6.1211-2.5195 9 0.35938 1.5586 0.71875 3 0.83984 4.5586-0.35938 7.1992-1.3203 14.52-3 21.48-1.5586 5.0391-3.6016 10.078-6.1211 14.762-3.2383 4.8008-7.0781 9.1211-10.441 13.922-1.6797 2.2812-3.2383 4.8008-4.6797 7.3203-1.4414 2.2812-3 4.3203-4.8008 6.3594-1.1992 0.96094-2.3984 1.8008-3.7188 2.6406-4.4414 2.3984-9 4.5586-13.32 7.3203-3.3594 2.1602-6.4805 4.6797-9.9609 6.9609-1.6797 0.83984-3.3594 1.4414-5.0391 2.0391-4.6797 1.0781-9.3594 2.0391-14.039 2.7617-5.2812 0.83984-10.441 1.6797-15.719 1.9219-8.0391-0.23828-16.078-1.0781-24.121-1.8008-8.3984-0.71875-16.801-1.6797-24.961-3.7188-4.6797-1.4414-9.3594-3.1211-13.922-5.1602-5.0391-2.2812-9.9609-5.0391-14.641-7.9219 0.35938 0.23828 0.83984 0.48047 1.1992 0.71875-0.71875-0.35938-1.3203-0.83984-2.0391-1.1992-3.6016-2.1602-7.3203-4.4414-10.922-6.6016 0.48047 0.23828 0.96094 0.60156 1.4414 0.83984-7.6797-4.6797-14.879-9.8398-21.359-16.078-1.6797-1.9219-3.1211-4.0781-4.5586-6.3594-1.5586-2.3984-3.2383-4.8008-4.8008-7.3203-0.23828-0.48047-0.48047-0.83984-0.71875-1.3203-1.5586-2.8789-3.2383-5.1602-6.3594-6.4805h-0.23828c-0.35937-1.3203-0.96094-2.6406-1.8008-3.8398-4.0781-5.3984-11.281-6-16.68-2.3984-2.3984 1.0781-4.8008 1.8008-7.1992 2.6406-2.5195 0.83984-4.9219 1.9219-7.4414 2.8789-4.8008 2.0391-9.3594 4.8008-14.281 6.4805-6.1211 1.3203-12.359 1.5586-18.602 1.5586-2.6406-0.12109-5.1602-0.48047-7.6797-1.0781-6.2383-1.9219-12.602-4.1992-18.238-7.5586-6.3594-3.8398-12.719-7.8008-18-12.961-3.2383-3.6016-6.1211-7.4414-8.6406-11.52-2.5195-4.8008-4.4414-9.6016-6-14.762-1.5586-7.0781-1.8008-14.398-1.8008-21.602 0.23828-5.3984 1.0781-10.559 2.2812-15.719 0.71875-2.3984 1.6797-4.6797 2.7617-6.9609 2.2812-3.4805 4.9219-6.9609 7.4414-10.32 5.1602-2.8789 7.5586-9.3594 5.1602-14.879-2.0391-5.0391-7.1992-7.6797-12.359-7.0781-0.12109 0-0.23828-0.12109-0.35938-0.12109-0.96094 0-1.9219 0.48047-3 0.71875-0.83984 0.23828-1.8008 0.35938-2.5195 0.83984-6.1211 1.4414-12.359 2.1602-18.719 2.6406-6.1211 0.60156-12.121 1.1992-18.238 1.3203-12.238-0.35938-24.602-2.0391-36.602-5.0391-8.8789-2.6406-17.641-6.1211-25.801-10.559-9.3594-5.8789-17.879-13.199-26.039-20.879-0.23828-0.35938-0.60156-0.60156-0.83984-0.96094-4.0781-4.3203-7.9219-8.8789-11.398-13.68-3.8398-5.1602-7.5586-10.441-11.52-15.602-3.6016-4.8008-7.1992-9.7188-10.32-14.762-2.1602-4.6797-3.8398-9.3594-5.2812-14.281-1.1992-3.9609-2.3984-7.8008-3.6016-11.762-1.6797-6.8398-2.5195-13.801-3.8398-20.762-1.1992-6.6016-2.5195-13.078-2.6406-19.801 0.12109-3.3594 0.48047-6.6016 0.71875-9.9609 0.35937-4.0781 0.71875-8.1602 1.4414-12.238 0.71875-2.3984 1.6797-4.8008 2.7617-7.0781 4.3203-6.4805 9.9609-12 15.48-17.52 3-2.8789 6-5.6406 9.1211-8.1602 3.2383-2.5195 6.7188-4.8008 10.199-6.9609 3.7188-2.0391 7.5586-3.7188 11.398-5.3984 4.8008-2.1602 9-5.0391 13.32-7.9219 2.3984-1.1992 4.8008-2.0391 7.3203-2.7617 5.2812-1.3203 10.559-2.5195 15.961-2.7617h0.83984c3.7188 0 7.6797 0 11.281 0.60156 1.0781 0.48047 2.2812 0.96094 3.2383 1.5586 1.9219 1.3203 3.6016 2.8789 5.3984 4.4414 3.9609 3.7188 10.199 3.1211 14.52 0 0.12109-0.12109 0.35937-0.12109 0.48047-0.23828 0.23828-0.23828 0.35938-0.48047 0.60156-0.71875 0.48047-0.35938 0.96094-0.60156 1.3203-1.0781 0.23828-0.23828 0.23828-0.71875 0.48047-0.96094 0.48047-0.71875 0.96094-1.5586 1.1992-2.3984 0.12109-0.48047 0.35938-0.83984 0.48047-1.3203 0.96094-3.4805 0.48047-7.3203-1.8008-10.441-7.0781-9.3594-14.398-18.48-20.762-28.32-2.2812-4.3203-4.3203-8.6406-6.6016-12.84-2.6406-4.9219-5.6406-9.7188-8.5195-14.52-2.7617-5.2812-4.9219-10.68-7.3203-16.078-2.8789-6.6016-6.3594-12.84-9.4805-19.32-1.4414-3.1211-3-6.3594-4.0781-9.7188-0.96094-3-1.8008-6.1211-2.6406-9.1211-0.96094-3.1211-2.1602-6.1211-3.3594-9.1211-0.96094-2.6406-1.8008-5.3984-2.6406-8.1602-1.0781-5.2812-1.5586-10.68-2.0391-15.961-0.35938-4.3203-0.83984-8.6406-0.96094-12.961 0.23828-4.1992 1.0781-8.1602 2.0391-12.238 0.96094-3.2383 1.9219-6.4805 3.1211-9.6016 1.3203-3.9609 3.1211-7.5586 5.1602-11.16 4.0781-6.3594 8.1602-12.719 12.719-18.719 3.9609-5.1602 8.7617-9.9609 13.441-14.52 6.3594-5.8789 13.078-11.039 20.398-15.48 2.8789-1.4414 5.7617-2.6406 8.7617-3.4805 4.6797-1.0781 9.3594-2.1602 13.922-3.1211 3.7188-0.83984 7.4414-1.8008 11.281-2.1602 2.8789 0.23828 5.7617 0.96094 8.6406 1.6797 4.0781 0.96094 8.1602 2.0391 12.238 3.1211 7.9219 1.9219 15.84 3.9609 23.762 6.1211 10.441 3.2383 20.52 8.1602 30 13.68 6.3594 4.0781 12.121 9 17.52 14.16 3 3.1211 5.7617 6.2383 8.7617 9.4805 3.3594 3.7188 7.1992 7.1992 10.801 10.801 4.4414 4.8008 8.3984 9.9609 11.762 15.48 1.4414 2.7617 2.5195 5.5195 3.4805 8.3984 0.23828 1.0781 0.35938 2.0391 0.35938 3.1211-0.12109 1.3203-0.23828 2.5195-0.35938 3.8398-0.60156 6.4805 3.4805 12.602 10.32 13.559 6.2383 0.83984 12.961-3.7188 13.559-10.32v-0.35938c0-0.23828 0.23828-0.35937 0.23828-0.60156 0.60156-6.2383 1.8008-12.359 3-18.602 1.0781-5.2812 1.9219-10.559 3.2383-15.84 2.5195-7.8008 6.3594-15.121 10.441-22.199 1.4414-2.1602 3-4.3203 4.8008-6.2383 4.5586-4.0781 9.6016-7.4414 14.879-10.559 3.4805-1.8008 7.1992-3.2383 10.922-4.4414 3.2383-0.71875 6.6016-1.4414 9.9609-2.2812 3.7188-0.96094 7.4414-1.9219 11.039-3 4.5586-1.0781 9.1211-1.9219 13.68-2.1602 9.6016 0.48047 19.199 2.3984 28.559 4.9219 6.8398 2.1602 13.559 5.1602 20.16 8.0391 5.6406 2.5195 11.281 5.1602 16.801 8.1602 8.0391 5.1602 15 11.641 21.719 18.359 3.8398 4.1992 7.4414 8.6406 10.68 13.32 3.7188 5.0391 11.039 6 16.078 2.6406 2.5195-0.60156 4.8008-1.8008 6.3594-3.9609 2.5195-3.4805 4.6797-7.0781 6.7188-10.801 1.4414-2.6406 2.7617-5.3984 4.1992-8.0391 1.9219-2.8789 3.9609-5.5195 5.8789-8.3984 2.0391-3 4.0781-5.8789 6.4805-8.5195 3.4805-3 7.3203-5.2812 10.922-7.9219 4.3203-3 8.3984-6.3594 12.84-9.1211 4.0781-2.1602 8.2812-3.9609 12.359-6 5.1602-2.5195 10.199-5.3984 15.121-8.1602 2.2812-1.1992 4.5586-2.1602 7.0781-2.8789 4.6797-1.1992 9.4805-2.2812 14.281-3.4805 5.1602-1.1992 10.441-2.2812 15.602-2.5195 5.7617-0.23828 11.52-0.23828 17.281-0.35937 4.0781-0.12109 8.1602-0.35938 12.238-0.35938 6.6016 0.23828 13.078 1.3203 19.559 2.3984 6.7188 0.96094 13.32 2.1602 19.922 3.7188 3.9609 1.1992 7.9219 2.3984 11.762 3.8398 3.9609 1.4414 7.8008 3.7188 11.281 5.8789 7.4414 4.8008 14.762 9.7188 21.359 15.719 5.8789 6.3594 10.68 13.801 15.602 20.879 4.6797 6.7188 9 13.68 13.078 20.762 3.6016 6.4805 6.4805 13.199 9.3594 20.039 2.6406 6.3594 5.3984 12.602 7.3203 19.199 1.3203 5.5195 2.2812 11.039 3.2383 16.68 0.96094 5.5195 1.8008 11.039 2.2812 16.559v0.23828c-0.71875 1.8008-1.4414 3.6016-2.2812 5.3984-2.6406 6 0.23828 13.199 6.2383 15.84 0.96094 0.35938 1.9219 0.48047 2.8789 0.60156 0.12109 0.12109 0.35938 0.23828 0.48047 0.35938 2.8789 1.3203 6.3594 1.3203 9.3594 0.12109 3.1211-1.3203 4.9219-3.4805 6.4805-6.3594 0.60156-1.1992 1.3203-2.3984 1.9219-3.6016 2.2812-3.2383 5.0391-6 7.8008-8.7617 5.5195-5.1602 11.52-9.7188 17.879-13.559 6.2383-3.3594 12.602-6.1211 19.32-8.5195 5.7617-2.0391 11.398-4.0781 17.281-5.6406 6.3594-1.5586 12.84-2.3984 19.32-3.7188 3.2383-0.60156 6.4805-1.3203 9.7188-1.9219 3.2383-0.71875 6.4805-1.4414 9.7188-1.6797 0.60156 0.12109 1.1992 0.23828 1.8008 0.35938 7.5586 2.3984 14.762 5.6406 22.078 8.3984 3.3594 1.3203 6.9609 2.2812 10.32 3.6016 3.9609 1.4414 7.5586 3.4805 11.281 5.5195 3.9609 2.6406 7.6797 5.6406 11.16 8.8789 6.7188 7.6797 12.121 16.559 17.641 25.199 1.1992 2.1602 2.3984 4.3203 3.6016 6.6016 1.5586 2.8789 3.2383 6 4.3203 9.1211 1.5586 7.1992 2.6406 14.641 3.8398 21.961 0.60156 3.4805 1.0781 6.8398 1.5586 10.32 0.35938 3.1211 0.48047 6.1211 0.60156 9.2383-0.12109 6.4805-1.1992 12.84-1.8008 19.32-0.60156 6.1211-0.83984 12.359-2.1602 18.359-1.4414 3.9609-3.3594 7.5586-5.2812 11.281-1.6797 3.3594-3.2383 6.7188-5.0391 10.078-0.71875 0.96094-1.4414 1.9219-2.1602 2.8789-2.3984 2.0391-4.9219 3.8398-7.3203 5.6406-2.6406 2.0391-5.1602 4.1992-7.5586 6.4805-2.5195 2.3984-5.1602 4.6797-7.6797 7.1992-3.2383 3-6.3594 6.1211-9.9609 8.5195-2.2812 1.1992-4.6797 2.2812-7.1992 3.1211-3.4805 0.71875-7.0781 1.0781-10.68 1.3203-6.4805 0.60156-11.16 7.1992-10.441 13.559 0.35938 3.2383 2.0391 5.8789 4.4414 7.6797 1.1992 1.5586 2.7617 2.8789 4.6797 4.0781-0.60156-0.35938-1.3203-0.71875-1.9219-1.0781 3.1211 1.8008 5.8789 3.8398 8.5195 6.2383 3.8398 4.3203 7.3203 9 10.559 13.801 3.3594 4.8008 6.7188 9.6016 9.8398 14.52 3.4805 6.7188 5.3984 14.16 7.3203 21.48-0.12109-0.35938-0.23828-0.71875-0.35938-1.1992 2.0391 7.8008 2.8789 15.48 2.8789 23.52v2.3984c-0.12109 6.6016-0.60156 13.078-1.3203 19.68-0.35938 3.2383-0.83984 6.3594-1.1992 9.4805-0.35938 2.7617-0.71875 5.3984-1.1992 8.1602-0.23828 0.71875-0.60156 1.4414-0.83984 2.0391-1.5586 2.1602-3.3594 3.9609-5.0391 6-1.4414 1.6797-2.7617 3.3594-4.1992 4.9219-2.5195 2.3984-5.1602 4.6797-8.1602 6.4805-3.9609 1.9219-8.3984 2.7617-12.48 4.4414-3.7188 1.5586-7.3203 3.3594-11.16 4.5586-2.5195 0.60156-5.0391 1.0781-7.4414 1.5586-1.5586 0.35938-3.2383 0.71875-4.8008 1.0781-1.8008 0.35938-3.7188 0.48047-5.6406 0.60156-3.7188-0.12109-7.3203-0.71875-11.039-1.5586-3-0.71875-6.6016 0.48047-8.8789 2.2812-2.5195 1.9219-4.1992 4.8008-4.6797 7.9219-0.12109 0.71875 0.12109 1.3203 0.12109 2.0391-1.3203 2.2812-2.0391 4.9219-1.8008 7.5586 0.48047 3.3594 2.1602 5.5195 4.4414 7.9219 1.0781 1.1992 2.2812 2.2812 3.3594 3.3594 0.48047 0.48047 0.83984 1.0781 1.1992 1.6797 1.1992 2.2812 2.1602 4.6797 3 7.0781 0.83984 3.6016 1.1992 7.3203 1.9219 10.922 0.83984 4.6797 1.6797 9.2383 1.6797 14.039v2.5195c-0.12109 5.1602-0.35937 10.441-1.6797 15.359-1.9219 6.6016-3.9609 13.441-7.1992 19.559-3.2305 5.2969-6.832 10.578-11.031 15.137z"/>
 <path d="m1130.5 831c-0.12109-1.6797-0.60156-3.3594-1.0781-5.0391 0.83984-6-0.35938-12-2.5195-17.641-1.9219-4.9219-5.7617-9.1211-9.7188-12.48-3.1211-2.7617-6.7188-4.8008-10.32-6.7188-2.5195-1.3203-5.1602-2.2812-7.8008-3-3.6016-0.96094-7.1992-1.9219-10.922-2.6406-2.3984-0.48047-4.9219-0.60156-7.3203-0.60156-3.6016-0.23828-7.3203 0.23828-10.801 0.71875-6.8398 1.0781-13.32 3.8398-19.078 7.5586-5.8789 3.8398-10.68 8.7617-15.359 13.922-9.1211 10.078-13.199 23.52-16.078 36.602-0.48047 2.2812-1.0781 4.6797-1.3203 6.9609-0.60156 3.8398-0.60156 7.8008-0.35938 11.641 0.35938 6.3594 2.2812 12.961 4.9219 18.84 2.5195 5.6406 5.5195 11.398 9.4805 16.078 4.1992 4.9219 8.7617 9.8398 14.281 13.32 3 1.8008 6 3.4805 9.3594 4.9219 5.6406 2.2812 11.52 3.2383 17.52 3.1211 9.4805-0.23828 18-5.0391 25.68-10.078 10.68-6.9609 17.641-18.121 22.559-29.52 3.1211-7.3203 5.1602-14.879 6.8398-22.68 0.71875-3.3594 1.3203-6.7188 1.9219-10.078 0.59375-4.4453 0.59375-8.8867 0.11328-13.207zm-27.719 28.078c-2.0391 6-4.4414 11.879-7.5586 17.398-1.6797 2.5195-3.4805 4.8008-5.5195 6.9609-2.5195 2.1602-5.1602 4.0781-8.0391 5.8789-2.3984 1.3203-4.8008 2.3984-7.3203 3.2383-0.83984 0.12109-1.6797 0.23828-2.6406 0.35937-1.1992-0.12109-2.5195-0.23828-3.7188-0.48047-2.6406-0.96094-5.1602-1.9219-7.6797-3.2383-2.0391-1.4414-3.9609-3-5.8789-4.6797-2.5195-2.6406-4.8008-5.5195-6.7188-8.6406-2.0469-3.8359-3.7266-7.6758-5.0469-11.875-0.60156-2.5195-0.83984-5.0391-1.0781-7.5586 0.35938-5.8789 1.8008-11.762 3.3594-17.398 1.4414-4.5586 3.1211-8.8789 5.2812-13.078 2.5195-3.7188 5.5195-6.9609 8.6406-10.078 1.9219-1.6797 3.9609-3.1211 6-4.5586 2.1602-1.1992 4.4414-2.1602 6.7188-3 3.1211-1.0781 6.1211-1.4414 9.2383-1.5586 3.2383 0.23828 6.3594 0.83984 9.4805 1.5586 2.8789 0.96094 5.6406 2.0391 8.2812 3.4805 1.5586 1.0781 3.1211 2.2812 4.5586 3.6016-0.60156 2.5195-0.35938 5.0391 0.48047 7.6797 0.35938 1.1992 0.71875 2.3984 1.0781 3.6016-0.35938 1.1992-0.71875 2.3984-1.0781 3.6016-1.0781 3.2383-1.4414 6.1211-0.12109 9.3594 0.60156 1.5586 1.5586 2.8789 2.7617 3.9609-0.83984 5.1484-2.1602 10.426-3.4805 15.465z"/>
 <path d="m1029.1 975.12c-5.5195-3.2383-12.238-5.0391-18.359-6.4805-2.6406-0.60156-5.3984-0.96094-8.1602-0.96094-1.5586 0.23828-3.2383 0.23828-4.8008 0.48047-4.4414 0.60156-8.3984 2.7617-12.121 5.0391-1.3203 0.83984-2.5195 1.5586-3.7188 2.5195-5.3984 4.3203-9.8398 10.199-12.48 16.559-2.8789 6.7188-3.4805 14.16-3.4805 21.359 0 6.8398 2.3984 13.199 5.7617 18.961 3.6016 6.1211 10.441 9.9609 16.922 12.238 9.6016 3.2383 19.922 5.0391 29.641 1.8008 4.9219-1.5586 9.4805-5.0391 12.84-9 2.8789-3.4805 4.4414-7.9219 6.2383-12.121 0.23828-0.23828 0.48047-0.60156 0.83984-0.83984 0.35937-0.35938 0.60156-0.71875 0.83984-1.0781 1.8008-0.71875 3.2383-1.9219 4.4414-3.6016 0.71875-1.0781 1.4414-2.1602 2.1602-3.2383 1.9219-3 3.1211-5.5195 3.9609-9 1.6797-6.4805-0.83984-13.078-4.4414-18.602-4.082-6.2344-9.8438-10.438-16.082-14.035zm-4.3203 30.117c-0.23828 0.35938-0.48047 0.71875-0.71875 1.1992-1.6797 0.83984-3.1211 2.0391-4.5586 3.4805-3.2383 3.6016-4.6797 8.0391-6.7188 12.359-0.23828 0.23828-0.35938 0.48047-0.60156 0.71875-0.23828 0.23828-0.48047 0.35938-0.71875 0.48047-0.48047 0.23828-0.96094 0.48047-1.4414 0.60156-0.83984 0.12109-1.6797 0.23828-2.5195 0.23828-2.7617-0.23828-5.3984-0.71875-8.1602-1.3203-2.1602-0.71875-4.1992-1.5586-6.2383-2.6406-0.23828-0.23828-0.60156-0.48047-0.83984-0.71875-0.12109-0.23828-0.35938-0.48047-0.48047-0.71875-0.48047-0.96094-0.83984-1.8008-1.0781-2.7617-0.35937-1.6797-0.48047-3.4805-0.60156-5.1602 0.12109-2.6406 0.60156-5.2812 1.1992-7.8008 0.48047-1.3203 0.96094-2.5195 1.4414-3.7188 0.96094-1.4414 2.0391-2.8789 3.2383-4.1992 0.96094-0.83984 2.0391-1.6797 3.1211-2.3984 0.96094-0.48047 1.9219-0.83984 2.8789-1.1992 0 0.23828 0.23828 0.23828 0.48047 0.12109 1.8008 0.12109 3.4805 0.48047 5.2812 0.83984 3.8398 1.1992 7.8008 2.6406 11.398 4.4414 1.5586 1.0781 3 2.1602 4.4414 3.4805 0.71875 0.83984 1.4414 1.6797 2.0391 2.6406 0.12109 0.12109 0.12109 0.23828 0.23828 0.35938-0.36328 0.59766-0.72266 1.0781-1.082 1.6758z"/>
</svg>
