<?xml version="1.0" encoding="UTF-8"?>
<svg width="1200pt" height="1200pt" version="1.1" viewBox="0 0 1200 1200" xmlns="http://www.w3.org/2000/svg">
 <path d="m966.93 892.14c-1.4883-579.88 43.254-170.45-296.82-428.32-35.949-24.586-50.73-33.539-42.586-64.016 107.06 3.5195 216.31 19.738 147.74-143.43-56.891-1.0938-221.39-37.332-198.9 57.488 35.805 180.43-156.87 250.54-305.62 244.47-40 81.816-15.602 235.86-31.367 336.94l-5.8555-4.8477c-146.14 93.27 293.27 49.266 367.61 57.719 25.68-9.9648 517.85 24.797 365.8-56.008zm-561.73-295.23c9.918 106-19.742 83.074-105.96 84.395-23.238-100.67 36.637-83.285 105.96-84.395zm-0.42969 302.71h-120.37c1.8906-28.633 3.5938-54.43 5.4961-83.25h114.87zm162.7 1.168c-3.0156-45.633-3.2109-83.5-2.8555-119.35 26.285-1.7305 48.328-3.1836 75.266-4.957 3.0195 42.117 5.8516 81.551 8.918 124.31zm189.52-3.3086-63.742-0.003906c-12.043-51 9.1562-143.46-36.484-163.98-168.31-9.3008-128.5 19.578-140.37 166.77h-65.887c3.0195-101.03-6.6719-202.85 2.6523-302.3 35.75-55.133 103.25-85.305 149.12-127.88 211.38 147.84 162.14 77.906 154.71 427.4zm166.11-1.0273h-114.19c-2.0352-24.816-4.1406-50.523-6.5547-79.938 43.016-2.6172 80.441-4.8945 120.74-7.3438zm-110.59-221c-19.32-118.95 35.023-69.82 111.1-76.211 12.414 104.61-34.691 71.742-111.1 76.211zm-203.28-114.05c40.996 36.828-6.9531 66.707-18.801 30.574 0.042969-7.957 9.1602-15.863 18.801-30.574z"/>
</svg>
