<?xml version="1.0" encoding="UTF-8"?>
<svg width="1200pt" height="1200pt" version="1.1" viewBox="0 0 1200 1200" xmlns="http://www.w3.org/2000/svg">
 <path d="m260.37 557.11c47.246 237.66 57.453 182.21 252.66 371.8 2.9648 2.8828 3.6445 8.1445 5.3789 12.328 27.387-57.395 12.68-85.367 79.645-156.88 121.9-130.2 250.56-243.79 317.03-414.65 16.691-42.871 34.367-85.758 24.41-133.84-7.1836-34.758-24.277-48.008-54.57-30.418-126.62 73.559-127.21 105.27-209 215.67-48.117 64.938-66.234-40.039-70.609-71.102-11.949-84.863-118.99-127.46-171.18-87.141-96.688 74.695-160.79 166.71-173.77 294.23zm725.91-284.98c-4.0625 18.504-8.3984 51.973-18.895 83.414-103.28 309.28-374.8 402.41-402.27 593.39-1.4062 9.7695-9.9648 102.94-31.18 94.609-40.902-16.066-22.09-49.184-17.43-84.211-44.027 22.008-53.965-32.02-98.062-65.625-81.129-61.824-158.15-131.13-184.58-232.96-16.996-65.43-22.984-132.52-0.60156-198.2 29.832-87.562 78.25-164.3 152.92-219.48 86.801-64.141 249.84-8.6328 260.08 106.06 0.57812 6.4609 4.1211 12.637 6.293 18.93 42.895-44.648 146.64-224.38 264.5-200.24 37.727 7.7148 63.488 26.852 69.23 104.32z" fill-rule="evenodd"/>
</svg>
