<?xml version="1.0" encoding="UTF-8"?>
<svg width="1200pt" height="1200pt" version="1.1" viewBox="0 0 1200 1200" xmlns="http://www.w3.org/2000/svg">
 <path d="m828.13 810.39c-2.1445 2.6016-3.8125 3.6797-3.9727 4.9492-11.227 90.105-80.277 114.1-153.06 129.38-87.941 18.465-177.86 15.129-266.94 11.324-46.676-2.4492-92.941-10.031-137.96-22.609-67.758-18.348-95.387-56.742-97.434-127.85-1.9141-66.488-1.7031-133.05-1.7188-199.58-0.011719-59.008 0.53125-118.02 1.6328-177.02 0.96875-48.426 22.004-83.859 62.527-113.39h-0.003907c43.562-32.652 97.582-48.215 151.84-43.746 69.211 3.6016 138.95-4.1836 208.47-4.7852 34.773-0.015625 69.504 2.4102 103.94 7.2578 27.922 3.043 54.145 14.93 74.84 33.922 20.695 18.992 34.781 44.102 40.203 71.66 1.3477 5.7812 3.0352 11.48 6.0195 22.68 17.41-7.9258 33.145-14.918 48.73-22.23 25.148-13.52 51.062-25.57 77.605-36.09 39.617-13.207 67.965 5.8281 75.023 47.305v-0.003906c2.6406 14.902 3.6172 30.047 2.9102 45.164-6.4648 116.21-13.562 232.39-20.52 348.59v-0.003906c-0.26172 4.5352-0.8125 9.0469-1.6445 13.516-9.3203 49.422-43.102 68.914-89.512 49.914-27.75-11.363-54.316-25.605-80.98-38.344zm-60.859-192.29c0-9.082 0.22266-18.168-0.035156-27.242-1.7344-60.469-2.5195-120.99-5.7188-181.38-2.4688-46.539-27.551-76.234-74.504-83.484-28.305-4.7344-56.926-7.2852-85.617-7.6406-71.082 0.0625-142.6 7.6133-213.09 1.7812l-0.003906 0.003907c-41.785-3.2812-83.402 8.1875-117.61 32.41-16.422 9.4453-29.902 23.262-38.934 39.918-9.0312 16.652-13.262 35.488-12.215 54.406-0.042969 107.29-1.9883 214.62 0.082031 321.88 1.8711 96.758 16.34 110.67 110.76 125.66v-0.003906c86.816 13.406 174.97 15.828 262.39 7.2031 42.012-3.8672 83.387-12.91 123.18-26.914 38.492-13.434 51.645-37.723 51.391-74.984-0.41016-60.531-0.10938-121.07-0.078125-181.61zm170.21 182.44c19.992-50.457 38.637-360.45 24.398-411.27-50.477 16.234-92.352 48.258-139.08 69.238v284.28c28.125 15.664 55.355 31.293 83.07 46.012 10.27 4.5898 20.828 8.5117 31.609 11.738zm-251.02-168.82c0-48.344 1.0195-96.715-0.43359-145.02-0.94531-24.129-4.293-48.105-9.9922-71.574-1.8594-7.9375-13.156-13.668-20.141-20.406-6.582 7.1953-16.227 13.391-18.988 21.836l-0.003906 0.003906c-2.5547 11.715-3.2617 23.758-2.1016 35.695 0.51172 78.395 1.3281 156.79 1.8711 235.18 0.26172 37.75-0.38281 75.516 0.49609 113.25 0.29297 12.52 5.7109 26.605 20.918 23.418h0.003906c10.898-3.3125 20.09-10.727 25.637-20.676 3.0742-10.094 3.8438-20.75 2.2578-31.18 0.15234-46.84 0.066406-93.684 0.066406-140.53zm-329.22-224.14c-9.9414-0.875-19.754 2.7305-26.766 9.832-7.0078 7.1016-10.484 16.957-9.4844 26.887 0.48828 7.7031 4.125 14.863 10.059 19.797 5.9336 4.9375 13.637 7.207 21.301 6.2852 17.984 0.14453 34.898-17.934 34.055-43.5-6.9766-4.8906-17.176-17.191-29.164-19.301z"/>
</svg>
